%TF.GenerationSoftware,KiCad,Pcbnew,(6.0.0)*%
%TF.CreationDate,2022-06-20T09:58:44+02:00*%
%TF.ProjectId,bottom_plate_pcb,626f7474-6f6d-45f7-906c-6174655f7063,rev?*%
%TF.SameCoordinates,Original*%
%TF.FileFunction,Copper,L1,Top*%
%TF.FilePolarity,Positive*%
%FSLAX46Y46*%
G04 Gerber Fmt 4.6, Leading zero omitted, Abs format (unit mm)*
G04 Created by KiCad (PCBNEW (6.0.0)) date 2022-06-20 09:58:44*
%MOMM*%
%LPD*%
G01*
G04 APERTURE LIST*
%TA.AperFunction,SMDPad,CuDef*%
%ADD10C,2.000000*%
%TD*%
%TA.AperFunction,ComponentPad*%
%ADD11C,0.800000*%
%TD*%
%TA.AperFunction,ComponentPad*%
%ADD12C,6.400000*%
%TD*%
%TA.AperFunction,ComponentPad*%
%ADD13O,24.000000X5.000000*%
%TD*%
G04 APERTURE END LIST*
D10*
%TO.P,TP4,1,1*%
%TO.N,DOUT*%
X152000000Y-98000000D03*
%TD*%
D11*
%TO.P,REF\u002A\u002A,1*%
%TO.N,N/C*%
X98500000Y-128100000D03*
X96100000Y-130500000D03*
X96802944Y-132197056D03*
X96802944Y-128802944D03*
X98500000Y-132900000D03*
X100900000Y-130500000D03*
X100197056Y-132197056D03*
X100197056Y-128802944D03*
D12*
X98500000Y-130500000D03*
%TD*%
D13*
%TO.P,J4,1,Pin_1*%
%TO.N,DIN*%
X98500000Y-60000000D03*
%TD*%
D11*
%TO.P,REF\u002A\u002A,1*%
%TO.N,N/C*%
X159802944Y-132197056D03*
X161500000Y-132900000D03*
X159802944Y-128802944D03*
X163900000Y-130500000D03*
X163197056Y-128802944D03*
X159100000Y-130500000D03*
X163197056Y-132197056D03*
D12*
X161500000Y-130500000D03*
D11*
X161500000Y-128100000D03*
%TD*%
D10*
%TO.P,TP2,1,1*%
%TO.N,+5V*%
X116000000Y-117000000D03*
%TD*%
D11*
%TO.P,REF\u002A\u002A,1*%
%TO.N,N/C*%
X161500000Y-69900000D03*
X159802944Y-69197056D03*
X163197056Y-69197056D03*
X161500000Y-65100000D03*
D12*
X161500000Y-67500000D03*
D11*
X159802944Y-65802944D03*
X163197056Y-65802944D03*
X163900000Y-67500000D03*
X159100000Y-67500000D03*
%TD*%
D13*
%TO.P,J3,1,Pin_1*%
%TO.N,GND*%
X161500000Y-60000000D03*
%TD*%
D10*
%TO.P,TP1,1,1*%
%TO.N,+5V*%
X129000000Y-117000000D03*
%TD*%
D12*
%TO.P,REF\u002A\u002A,1*%
%TO.N,N/C*%
X98500000Y-67500000D03*
D11*
X100197056Y-65802944D03*
X98500000Y-69900000D03*
X96100000Y-67500000D03*
X100900000Y-67500000D03*
X100197056Y-69197056D03*
X96802944Y-65802944D03*
X98500000Y-65100000D03*
X96802944Y-69197056D03*
%TD*%
D13*
%TO.P,J2,1,Pin_1*%
%TO.N,+5V*%
X98500000Y-138000000D03*
%TD*%
D10*
%TO.P,TP6,1,1*%
%TO.N,GND*%
X147000000Y-82000000D03*
%TD*%
%TO.P,TP3,1,1*%
%TO.N,+5V*%
X108000000Y-100000000D03*
%TD*%
D13*
%TO.P,J1,1,Pin_1*%
%TO.N,DOUT*%
X161500000Y-138000000D03*
%TD*%
D10*
%TO.P,TP5,1,1*%
%TO.N,DIN*%
X109000000Y-82000000D03*
%TD*%
%TA.AperFunction,Conductor*%
%TO.N,DOUT*%
G36*
X176434121Y-91020002D02*
G01*
X176480614Y-91073658D01*
X176492000Y-91126000D01*
X176492000Y-145366000D01*
X176471998Y-145434121D01*
X176418342Y-145480614D01*
X176366000Y-145492000D01*
X149126000Y-145492000D01*
X149057879Y-145471998D01*
X149011386Y-145418342D01*
X149000000Y-145366000D01*
X149000000Y-138188831D01*
X149020002Y-138120710D01*
X149073658Y-138074217D01*
X149143932Y-138064113D01*
X149208512Y-138093607D01*
X149246896Y-138153333D01*
X149251810Y-138181907D01*
X149259043Y-138313333D01*
X149259912Y-138320847D01*
X149316537Y-138640354D01*
X149318304Y-138647714D01*
X149412898Y-138958083D01*
X149415546Y-138965203D01*
X149546739Y-139261955D01*
X149550216Y-139268692D01*
X149716120Y-139547552D01*
X149720368Y-139553803D01*
X149918574Y-139810715D01*
X149923559Y-139816430D01*
X150151180Y-140047654D01*
X150156816Y-140052729D01*
X150410573Y-140254938D01*
X150416771Y-140259294D01*
X150692987Y-140429555D01*
X150699663Y-140433135D01*
X150994334Y-140568980D01*
X151001385Y-140571730D01*
X151310247Y-140671192D01*
X151317580Y-140673075D01*
X151636155Y-140734711D01*
X151643655Y-140735698D01*
X151899919Y-140753842D01*
X151904369Y-140754000D01*
X161227885Y-140754000D01*
X161243124Y-140749525D01*
X161244329Y-140748135D01*
X161246000Y-140740452D01*
X161246000Y-140735885D01*
X161754000Y-140735885D01*
X161758475Y-140751124D01*
X161759865Y-140752329D01*
X161767548Y-140754000D01*
X171081609Y-140754000D01*
X171085382Y-140753887D01*
X171327684Y-140739279D01*
X171335186Y-140738371D01*
X171654400Y-140680072D01*
X171661733Y-140678271D01*
X171971634Y-140582044D01*
X171978707Y-140579372D01*
X172274781Y-140446621D01*
X172281508Y-140443104D01*
X172559481Y-140275751D01*
X172565725Y-140271460D01*
X172821587Y-140071918D01*
X172827277Y-140066901D01*
X173057314Y-139838065D01*
X173062344Y-139832420D01*
X173263229Y-139577599D01*
X173267554Y-139571376D01*
X173436370Y-139294266D01*
X173439905Y-139287589D01*
X173574211Y-138992201D01*
X173576924Y-138985131D01*
X173674764Y-138675764D01*
X173676611Y-138668413D01*
X173736578Y-138349523D01*
X173737526Y-138342013D01*
X173742110Y-138272078D01*
X173738687Y-138256779D01*
X173727661Y-138254000D01*
X161772115Y-138254000D01*
X161756876Y-138258475D01*
X161755671Y-138259865D01*
X161754000Y-138267548D01*
X161754000Y-140735885D01*
X161246000Y-140735885D01*
X161246000Y-137727885D01*
X161754000Y-137727885D01*
X161758475Y-137743124D01*
X161759865Y-137744329D01*
X161767548Y-137746000D01*
X173726107Y-137746000D01*
X173741341Y-137741527D01*
X173743381Y-137730724D01*
X173740957Y-137686666D01*
X173740088Y-137679155D01*
X173683463Y-137359646D01*
X173681696Y-137352286D01*
X173587102Y-137041917D01*
X173584454Y-137034797D01*
X173453261Y-136738045D01*
X173449784Y-136731308D01*
X173283880Y-136452448D01*
X173279632Y-136446197D01*
X173081426Y-136189285D01*
X173076441Y-136183570D01*
X172848820Y-135952346D01*
X172843184Y-135947271D01*
X172589427Y-135745062D01*
X172583229Y-135740706D01*
X172307013Y-135570445D01*
X172300337Y-135566865D01*
X172005666Y-135431020D01*
X171998615Y-135428270D01*
X171689753Y-135328808D01*
X171682420Y-135326925D01*
X171363845Y-135265289D01*
X171356345Y-135264302D01*
X171100081Y-135246158D01*
X171095631Y-135246000D01*
X161772115Y-135246000D01*
X161756876Y-135250475D01*
X161755671Y-135251865D01*
X161754000Y-135259548D01*
X161754000Y-137727885D01*
X161246000Y-137727885D01*
X161246000Y-135264115D01*
X161241525Y-135248876D01*
X161240135Y-135247671D01*
X161232452Y-135246000D01*
X151918392Y-135246000D01*
X151914618Y-135246113D01*
X151672316Y-135260721D01*
X151664814Y-135261629D01*
X151345600Y-135319928D01*
X151338267Y-135321729D01*
X151028366Y-135417956D01*
X151021293Y-135420628D01*
X150725219Y-135553379D01*
X150718492Y-135556896D01*
X150440519Y-135724249D01*
X150434275Y-135728540D01*
X150178413Y-135928082D01*
X150172723Y-135933099D01*
X149942686Y-136161935D01*
X149937656Y-136167580D01*
X149736771Y-136422401D01*
X149732446Y-136428624D01*
X149563630Y-136705734D01*
X149560095Y-136712411D01*
X149425789Y-137007799D01*
X149423076Y-137014869D01*
X149325236Y-137324236D01*
X149323389Y-137331587D01*
X149263422Y-137650477D01*
X149262474Y-137657987D01*
X149251730Y-137821907D01*
X149227316Y-137888573D01*
X149170734Y-137931458D01*
X149099950Y-137936944D01*
X149037436Y-137903290D01*
X149003041Y-137841181D01*
X149000000Y-137813666D01*
X149000000Y-130500000D01*
X157786411Y-130500000D01*
X157806754Y-130888176D01*
X157867562Y-131272099D01*
X157968167Y-131647562D01*
X158107468Y-132010453D01*
X158283938Y-132356794D01*
X158495643Y-132682793D01*
X158740266Y-132984876D01*
X159015124Y-133259734D01*
X159317207Y-133504357D01*
X159643205Y-133716062D01*
X159646139Y-133717557D01*
X159646146Y-133717561D01*
X159986607Y-133891034D01*
X159989547Y-133892532D01*
X160352438Y-134031833D01*
X160727901Y-134132438D01*
X160931793Y-134164732D01*
X161108576Y-134192732D01*
X161108584Y-134192733D01*
X161111824Y-134193246D01*
X161500000Y-134213589D01*
X161888176Y-134193246D01*
X161891416Y-134192733D01*
X161891424Y-134192732D01*
X162068207Y-134164732D01*
X162272099Y-134132438D01*
X162647562Y-134031833D01*
X163010453Y-133892532D01*
X163013393Y-133891034D01*
X163353854Y-133717561D01*
X163353861Y-133717557D01*
X163356795Y-133716062D01*
X163682793Y-133504357D01*
X163984876Y-133259734D01*
X164259734Y-132984876D01*
X164504357Y-132682793D01*
X164716062Y-132356794D01*
X164892532Y-132010453D01*
X165031833Y-131647562D01*
X165132438Y-131272099D01*
X165193246Y-130888176D01*
X165213589Y-130500000D01*
X165193246Y-130111824D01*
X165132438Y-129727901D01*
X165031833Y-129352438D01*
X164892532Y-128989547D01*
X164716062Y-128643206D01*
X164504357Y-128317207D01*
X164259734Y-128015124D01*
X163984876Y-127740266D01*
X163682793Y-127495643D01*
X163356795Y-127283938D01*
X163353861Y-127282443D01*
X163353854Y-127282439D01*
X163013393Y-127108966D01*
X163010453Y-127107468D01*
X162647562Y-126968167D01*
X162272099Y-126867562D01*
X162068207Y-126835268D01*
X161891424Y-126807268D01*
X161891416Y-126807267D01*
X161888176Y-126806754D01*
X161500000Y-126786411D01*
X161111824Y-126806754D01*
X161108584Y-126807267D01*
X161108576Y-126807268D01*
X160931793Y-126835268D01*
X160727901Y-126867562D01*
X160352438Y-126968167D01*
X159989547Y-127107468D01*
X159986607Y-127108966D01*
X159646147Y-127282439D01*
X159646140Y-127282443D01*
X159643206Y-127283938D01*
X159317207Y-127495643D01*
X159015124Y-127740266D01*
X158740266Y-128015124D01*
X158495643Y-128317207D01*
X158283938Y-128643206D01*
X158107468Y-128989547D01*
X157968167Y-129352438D01*
X157867562Y-129727901D01*
X157806754Y-130111824D01*
X157786411Y-130500000D01*
X149000000Y-130500000D01*
X149000000Y-130000000D01*
X148000000Y-123000000D01*
X142069650Y-120034825D01*
X142017667Y-119986471D01*
X142000000Y-119922128D01*
X142000000Y-100058665D01*
X142020002Y-99990544D01*
X142044894Y-99962239D01*
X143132668Y-99047289D01*
X151317265Y-99047289D01*
X151326561Y-99059304D01*
X151366100Y-99086989D01*
X151375590Y-99092469D01*
X151564486Y-99180553D01*
X151574778Y-99184299D01*
X151776098Y-99238242D01*
X151786893Y-99240145D01*
X151994525Y-99258311D01*
X152005475Y-99258311D01*
X152213107Y-99240145D01*
X152223902Y-99238242D01*
X152425222Y-99184299D01*
X152435514Y-99180553D01*
X152624410Y-99092469D01*
X152633900Y-99086989D01*
X152674278Y-99058717D01*
X152682652Y-99048242D01*
X152675583Y-99034793D01*
X152012812Y-98372022D01*
X151998868Y-98364408D01*
X151997035Y-98364539D01*
X151990420Y-98368790D01*
X151323695Y-99035515D01*
X151317265Y-99047289D01*
X143132668Y-99047289D01*
X144371269Y-98005475D01*
X150741689Y-98005475D01*
X150759855Y-98213107D01*
X150761758Y-98223902D01*
X150815701Y-98425222D01*
X150819447Y-98435514D01*
X150907531Y-98624410D01*
X150913011Y-98633900D01*
X150941283Y-98674278D01*
X150951758Y-98682652D01*
X150965207Y-98675583D01*
X151627978Y-98012812D01*
X151634356Y-98001132D01*
X152364408Y-98001132D01*
X152364539Y-98002965D01*
X152368790Y-98009580D01*
X153035515Y-98676305D01*
X153047289Y-98682735D01*
X153059304Y-98673439D01*
X153086989Y-98633900D01*
X153092469Y-98624410D01*
X153180553Y-98435514D01*
X153184299Y-98425222D01*
X153238242Y-98223902D01*
X153240145Y-98213107D01*
X153258311Y-98005475D01*
X153258311Y-97994525D01*
X153240145Y-97786893D01*
X153238242Y-97776098D01*
X153184299Y-97574778D01*
X153180553Y-97564486D01*
X153092469Y-97375590D01*
X153086989Y-97366100D01*
X153058717Y-97325722D01*
X153048242Y-97317348D01*
X153034793Y-97324417D01*
X152372022Y-97987188D01*
X152364408Y-98001132D01*
X151634356Y-98001132D01*
X151635592Y-97998868D01*
X151635461Y-97997035D01*
X151631210Y-97990420D01*
X150964485Y-97323695D01*
X150952711Y-97317265D01*
X150940696Y-97326561D01*
X150913011Y-97366100D01*
X150907531Y-97375590D01*
X150819447Y-97564486D01*
X150815701Y-97574778D01*
X150761758Y-97776098D01*
X150759855Y-97786893D01*
X150741689Y-97994525D01*
X150741689Y-98005475D01*
X144371269Y-98005475D01*
X145624021Y-96951758D01*
X151317348Y-96951758D01*
X151324417Y-96965207D01*
X151987188Y-97627978D01*
X152001132Y-97635592D01*
X152002965Y-97635461D01*
X152009580Y-97631210D01*
X152676305Y-96964485D01*
X152682735Y-96952711D01*
X152673439Y-96940696D01*
X152633900Y-96913011D01*
X152624410Y-96907531D01*
X152435514Y-96819447D01*
X152425222Y-96815701D01*
X152223902Y-96761758D01*
X152213107Y-96759855D01*
X152005475Y-96741689D01*
X151994525Y-96741689D01*
X151786893Y-96759855D01*
X151776098Y-96761758D01*
X151574778Y-96815701D01*
X151564486Y-96819447D01*
X151375590Y-96907531D01*
X151366100Y-96913011D01*
X151325722Y-96941283D01*
X151317348Y-96951758D01*
X145624021Y-96951758D01*
X152664840Y-91029574D01*
X152729847Y-91001033D01*
X152745946Y-91000000D01*
X176366000Y-91000000D01*
X176434121Y-91020002D01*
G37*
%TD.AperFunction*%
%TD*%
%TA.AperFunction,Conductor*%
%TO.N,GND*%
G36*
X176434121Y-52528002D02*
G01*
X176480614Y-52581658D01*
X176492000Y-52634000D01*
X176492000Y-85893006D01*
X176471998Y-85961127D01*
X176418342Y-86007620D01*
X176366660Y-86019004D01*
X160715875Y-86100865D01*
X148344635Y-86165573D01*
X148344634Y-86165573D01*
X148326518Y-86165668D01*
X148318101Y-86173515D01*
X140210907Y-93731969D01*
X140147442Y-93763792D01*
X140125343Y-93765808D01*
X121069935Y-93819915D01*
X121013228Y-93806614D01*
X117709760Y-92154880D01*
X117657776Y-92106525D01*
X117640109Y-92042007D01*
X117652624Y-83047289D01*
X146317265Y-83047289D01*
X146326561Y-83059304D01*
X146366100Y-83086989D01*
X146375590Y-83092469D01*
X146564486Y-83180553D01*
X146574778Y-83184299D01*
X146776098Y-83238242D01*
X146786893Y-83240145D01*
X146994525Y-83258311D01*
X147005475Y-83258311D01*
X147213107Y-83240145D01*
X147223902Y-83238242D01*
X147425222Y-83184299D01*
X147435514Y-83180553D01*
X147624410Y-83092469D01*
X147633900Y-83086989D01*
X147674278Y-83058717D01*
X147682652Y-83048242D01*
X147675583Y-83034793D01*
X147012812Y-82372022D01*
X146998868Y-82364408D01*
X146997035Y-82364539D01*
X146990420Y-82368790D01*
X146323695Y-83035515D01*
X146317265Y-83047289D01*
X117652624Y-83047289D01*
X117654074Y-82005475D01*
X145741689Y-82005475D01*
X145759855Y-82213107D01*
X145761758Y-82223902D01*
X145815701Y-82425222D01*
X145819447Y-82435514D01*
X145907531Y-82624410D01*
X145913011Y-82633900D01*
X145941283Y-82674278D01*
X145951758Y-82682652D01*
X145965207Y-82675583D01*
X146627978Y-82012812D01*
X146634356Y-82001132D01*
X147364408Y-82001132D01*
X147364539Y-82002965D01*
X147368790Y-82009580D01*
X148035515Y-82676305D01*
X148047289Y-82682735D01*
X148059304Y-82673439D01*
X148086989Y-82633900D01*
X148092469Y-82624410D01*
X148180553Y-82435514D01*
X148184299Y-82425222D01*
X148238242Y-82223902D01*
X148240145Y-82213107D01*
X148258311Y-82005475D01*
X148258311Y-81994525D01*
X148240145Y-81786893D01*
X148238242Y-81776098D01*
X148184299Y-81574778D01*
X148180553Y-81564486D01*
X148092469Y-81375590D01*
X148086989Y-81366100D01*
X148058717Y-81325722D01*
X148048242Y-81317348D01*
X148034793Y-81324417D01*
X147372022Y-81987188D01*
X147364408Y-82001132D01*
X146634356Y-82001132D01*
X146635592Y-81998868D01*
X146635461Y-81997035D01*
X146631210Y-81990420D01*
X145964485Y-81323695D01*
X145952711Y-81317265D01*
X145940696Y-81326561D01*
X145913011Y-81366100D01*
X145907531Y-81375590D01*
X145819447Y-81564486D01*
X145815701Y-81574778D01*
X145761758Y-81776098D01*
X145759855Y-81786893D01*
X145741689Y-81994525D01*
X145741689Y-82005475D01*
X117654074Y-82005475D01*
X117655540Y-80951758D01*
X146317348Y-80951758D01*
X146324417Y-80965207D01*
X146987188Y-81627978D01*
X147001132Y-81635592D01*
X147002965Y-81635461D01*
X147009580Y-81631210D01*
X147676305Y-80964485D01*
X147682735Y-80952711D01*
X147673439Y-80940696D01*
X147633900Y-80913011D01*
X147624410Y-80907531D01*
X147435514Y-80819447D01*
X147425222Y-80815701D01*
X147223902Y-80761758D01*
X147213107Y-80759855D01*
X147005475Y-80741689D01*
X146994525Y-80741689D01*
X146786893Y-80759855D01*
X146776098Y-80761758D01*
X146574778Y-80815701D01*
X146564486Y-80819447D01*
X146375590Y-80907531D01*
X146366100Y-80913011D01*
X146325722Y-80941283D01*
X146317348Y-80951758D01*
X117655540Y-80951758D01*
X117674258Y-67500000D01*
X157786411Y-67500000D01*
X157806754Y-67888176D01*
X157867562Y-68272099D01*
X157968167Y-68647562D01*
X158107468Y-69010453D01*
X158283938Y-69356794D01*
X158495643Y-69682793D01*
X158740266Y-69984876D01*
X159015124Y-70259734D01*
X159317207Y-70504357D01*
X159643205Y-70716062D01*
X159646139Y-70717557D01*
X159646146Y-70717561D01*
X159986607Y-70891034D01*
X159989547Y-70892532D01*
X160352438Y-71031833D01*
X160727901Y-71132438D01*
X160931793Y-71164732D01*
X161108576Y-71192732D01*
X161108584Y-71192733D01*
X161111824Y-71193246D01*
X161500000Y-71213589D01*
X161888176Y-71193246D01*
X161891416Y-71192733D01*
X161891424Y-71192732D01*
X162068207Y-71164732D01*
X162272099Y-71132438D01*
X162647562Y-71031833D01*
X163010453Y-70892532D01*
X163013393Y-70891034D01*
X163353854Y-70717561D01*
X163353861Y-70717557D01*
X163356795Y-70716062D01*
X163682793Y-70504357D01*
X163984876Y-70259734D01*
X164259734Y-69984876D01*
X164504357Y-69682793D01*
X164716062Y-69356794D01*
X164892532Y-69010453D01*
X165031833Y-68647562D01*
X165132438Y-68272099D01*
X165193246Y-67888176D01*
X165213589Y-67500000D01*
X165193246Y-67111824D01*
X165132438Y-66727901D01*
X165031833Y-66352438D01*
X164892532Y-65989547D01*
X164716062Y-65643206D01*
X164504357Y-65317207D01*
X164259734Y-65015124D01*
X163984876Y-64740266D01*
X163682793Y-64495643D01*
X163356795Y-64283938D01*
X163353861Y-64282443D01*
X163353854Y-64282439D01*
X163013393Y-64108966D01*
X163010453Y-64107468D01*
X162647562Y-63968167D01*
X162272099Y-63867562D01*
X162068207Y-63835268D01*
X161891424Y-63807268D01*
X161891416Y-63807267D01*
X161888176Y-63806754D01*
X161500000Y-63786411D01*
X161111824Y-63806754D01*
X161108584Y-63807267D01*
X161108576Y-63807268D01*
X160931793Y-63835268D01*
X160727901Y-63867562D01*
X160352438Y-63968167D01*
X159989547Y-64107468D01*
X159986607Y-64108966D01*
X159646147Y-64282439D01*
X159646140Y-64282443D01*
X159643206Y-64283938D01*
X159317207Y-64495643D01*
X159015124Y-64740266D01*
X158740266Y-65015124D01*
X158495643Y-65317207D01*
X158283938Y-65643206D01*
X158107468Y-65989547D01*
X157968167Y-66352438D01*
X157867562Y-66727901D01*
X157806754Y-67111824D01*
X157786411Y-67500000D01*
X117674258Y-67500000D01*
X117684319Y-60269276D01*
X149256619Y-60269276D01*
X149259043Y-60313334D01*
X149259912Y-60320845D01*
X149316537Y-60640354D01*
X149318304Y-60647714D01*
X149412898Y-60958083D01*
X149415546Y-60965203D01*
X149546739Y-61261955D01*
X149550216Y-61268692D01*
X149716120Y-61547552D01*
X149720368Y-61553803D01*
X149918574Y-61810715D01*
X149923559Y-61816430D01*
X150151180Y-62047654D01*
X150156816Y-62052729D01*
X150410573Y-62254938D01*
X150416771Y-62259294D01*
X150692987Y-62429555D01*
X150699663Y-62433135D01*
X150994334Y-62568980D01*
X151001385Y-62571730D01*
X151310247Y-62671192D01*
X151317580Y-62673075D01*
X151636155Y-62734711D01*
X151643655Y-62735698D01*
X151899919Y-62753842D01*
X151904369Y-62754000D01*
X161227885Y-62754000D01*
X161243124Y-62749525D01*
X161244329Y-62748135D01*
X161246000Y-62740452D01*
X161246000Y-62735885D01*
X161754000Y-62735885D01*
X161758475Y-62751124D01*
X161759865Y-62752329D01*
X161767548Y-62754000D01*
X171081609Y-62754000D01*
X171085382Y-62753887D01*
X171327684Y-62739279D01*
X171335186Y-62738371D01*
X171654400Y-62680072D01*
X171661733Y-62678271D01*
X171971634Y-62582044D01*
X171978707Y-62579372D01*
X172274781Y-62446621D01*
X172281508Y-62443104D01*
X172559481Y-62275751D01*
X172565725Y-62271460D01*
X172821587Y-62071918D01*
X172827277Y-62066901D01*
X173057314Y-61838065D01*
X173062344Y-61832420D01*
X173263229Y-61577599D01*
X173267554Y-61571376D01*
X173436370Y-61294266D01*
X173439905Y-61287589D01*
X173574211Y-60992201D01*
X173576924Y-60985131D01*
X173674764Y-60675764D01*
X173676611Y-60668413D01*
X173736578Y-60349523D01*
X173737526Y-60342013D01*
X173742110Y-60272078D01*
X173738687Y-60256779D01*
X173727661Y-60254000D01*
X161772115Y-60254000D01*
X161756876Y-60258475D01*
X161755671Y-60259865D01*
X161754000Y-60267548D01*
X161754000Y-62735885D01*
X161246000Y-62735885D01*
X161246000Y-60272115D01*
X161241525Y-60256876D01*
X161240135Y-60255671D01*
X161232452Y-60254000D01*
X149273893Y-60254000D01*
X149258659Y-60258473D01*
X149256619Y-60269276D01*
X117684319Y-60269276D01*
X117685072Y-59727922D01*
X149257890Y-59727922D01*
X149261313Y-59743221D01*
X149272339Y-59746000D01*
X161227885Y-59746000D01*
X161243124Y-59741525D01*
X161244329Y-59740135D01*
X161246000Y-59732452D01*
X161246000Y-59727885D01*
X161754000Y-59727885D01*
X161758475Y-59743124D01*
X161759865Y-59744329D01*
X161767548Y-59746000D01*
X173726107Y-59746000D01*
X173741341Y-59741527D01*
X173743381Y-59730724D01*
X173740957Y-59686666D01*
X173740088Y-59679155D01*
X173683463Y-59359646D01*
X173681696Y-59352286D01*
X173587102Y-59041917D01*
X173584454Y-59034797D01*
X173453261Y-58738045D01*
X173449784Y-58731308D01*
X173283880Y-58452448D01*
X173279632Y-58446197D01*
X173081426Y-58189285D01*
X173076441Y-58183570D01*
X172848820Y-57952346D01*
X172843184Y-57947271D01*
X172589427Y-57745062D01*
X172583229Y-57740706D01*
X172307013Y-57570445D01*
X172300337Y-57566865D01*
X172005666Y-57431020D01*
X171998615Y-57428270D01*
X171689753Y-57328808D01*
X171682420Y-57326925D01*
X171363845Y-57265289D01*
X171356345Y-57264302D01*
X171100081Y-57246158D01*
X171095631Y-57246000D01*
X161772115Y-57246000D01*
X161756876Y-57250475D01*
X161755671Y-57251865D01*
X161754000Y-57259548D01*
X161754000Y-59727885D01*
X161246000Y-59727885D01*
X161246000Y-57264115D01*
X161241525Y-57248876D01*
X161240135Y-57247671D01*
X161232452Y-57246000D01*
X151918392Y-57246000D01*
X151914618Y-57246113D01*
X151672316Y-57260721D01*
X151664814Y-57261629D01*
X151345600Y-57319928D01*
X151338267Y-57321729D01*
X151028366Y-57417956D01*
X151021293Y-57420628D01*
X150725219Y-57553379D01*
X150718492Y-57556896D01*
X150440519Y-57724249D01*
X150434275Y-57728540D01*
X150178413Y-57928082D01*
X150172723Y-57933099D01*
X149942686Y-58161935D01*
X149937656Y-58167580D01*
X149736771Y-58422401D01*
X149732446Y-58428624D01*
X149563630Y-58705734D01*
X149560095Y-58712411D01*
X149425789Y-59007799D01*
X149423076Y-59014869D01*
X149325236Y-59324236D01*
X149323389Y-59331587D01*
X149263422Y-59650477D01*
X149262474Y-59657987D01*
X149257890Y-59727922D01*
X117685072Y-59727922D01*
X117694944Y-52633825D01*
X117715041Y-52565732D01*
X117768761Y-52519314D01*
X117820944Y-52508000D01*
X176366000Y-52508000D01*
X176434121Y-52528002D01*
G37*
%TD.AperFunction*%
%TD*%
%TA.AperFunction,Conductor*%
%TO.N,+5V*%
G36*
X112926674Y-95520002D02*
G01*
X112933353Y-95524605D01*
X118985422Y-99989246D01*
X119000000Y-100000000D01*
X119015154Y-100000099D01*
X119015155Y-100000099D01*
X133971738Y-100097590D01*
X134039727Y-100118035D01*
X134085869Y-100171993D01*
X134096913Y-100222554D01*
X134466175Y-145364971D01*
X134446732Y-145433251D01*
X134393458Y-145480182D01*
X134340180Y-145492000D01*
X83634000Y-145492000D01*
X83565879Y-145471998D01*
X83519386Y-145418342D01*
X83508000Y-145366000D01*
X83508000Y-138269276D01*
X86256619Y-138269276D01*
X86259043Y-138313334D01*
X86259912Y-138320845D01*
X86316537Y-138640354D01*
X86318304Y-138647714D01*
X86412898Y-138958083D01*
X86415546Y-138965203D01*
X86546739Y-139261955D01*
X86550216Y-139268692D01*
X86716120Y-139547552D01*
X86720368Y-139553803D01*
X86918574Y-139810715D01*
X86923559Y-139816430D01*
X87151180Y-140047654D01*
X87156816Y-140052729D01*
X87410573Y-140254938D01*
X87416771Y-140259294D01*
X87692987Y-140429555D01*
X87699663Y-140433135D01*
X87994334Y-140568980D01*
X88001385Y-140571730D01*
X88310247Y-140671192D01*
X88317580Y-140673075D01*
X88636155Y-140734711D01*
X88643655Y-140735698D01*
X88899919Y-140753842D01*
X88904369Y-140754000D01*
X98227885Y-140754000D01*
X98243124Y-140749525D01*
X98244329Y-140748135D01*
X98246000Y-140740452D01*
X98246000Y-140735885D01*
X98754000Y-140735885D01*
X98758475Y-140751124D01*
X98759865Y-140752329D01*
X98767548Y-140754000D01*
X108081609Y-140754000D01*
X108085382Y-140753887D01*
X108327684Y-140739279D01*
X108335186Y-140738371D01*
X108654400Y-140680072D01*
X108661733Y-140678271D01*
X108971634Y-140582044D01*
X108978707Y-140579372D01*
X109274781Y-140446621D01*
X109281508Y-140443104D01*
X109559481Y-140275751D01*
X109565725Y-140271460D01*
X109821587Y-140071918D01*
X109827277Y-140066901D01*
X110057314Y-139838065D01*
X110062344Y-139832420D01*
X110263229Y-139577599D01*
X110267554Y-139571376D01*
X110436370Y-139294266D01*
X110439905Y-139287589D01*
X110574211Y-138992201D01*
X110576924Y-138985131D01*
X110674764Y-138675764D01*
X110676611Y-138668413D01*
X110736578Y-138349523D01*
X110737526Y-138342013D01*
X110742110Y-138272078D01*
X110738687Y-138256779D01*
X110727661Y-138254000D01*
X98772115Y-138254000D01*
X98756876Y-138258475D01*
X98755671Y-138259865D01*
X98754000Y-138267548D01*
X98754000Y-140735885D01*
X98246000Y-140735885D01*
X98246000Y-138272115D01*
X98241525Y-138256876D01*
X98240135Y-138255671D01*
X98232452Y-138254000D01*
X86273893Y-138254000D01*
X86258659Y-138258473D01*
X86256619Y-138269276D01*
X83508000Y-138269276D01*
X83508000Y-137727922D01*
X86257890Y-137727922D01*
X86261313Y-137743221D01*
X86272339Y-137746000D01*
X98227885Y-137746000D01*
X98243124Y-137741525D01*
X98244329Y-137740135D01*
X98246000Y-137732452D01*
X98246000Y-137727885D01*
X98754000Y-137727885D01*
X98758475Y-137743124D01*
X98759865Y-137744329D01*
X98767548Y-137746000D01*
X110726107Y-137746000D01*
X110741341Y-137741527D01*
X110743381Y-137730724D01*
X110740957Y-137686666D01*
X110740088Y-137679155D01*
X110683463Y-137359646D01*
X110681696Y-137352286D01*
X110587102Y-137041917D01*
X110584454Y-137034797D01*
X110453261Y-136738045D01*
X110449784Y-136731308D01*
X110283880Y-136452448D01*
X110279632Y-136446197D01*
X110081426Y-136189285D01*
X110076441Y-136183570D01*
X109848820Y-135952346D01*
X109843184Y-135947271D01*
X109589427Y-135745062D01*
X109583229Y-135740706D01*
X109307013Y-135570445D01*
X109300337Y-135566865D01*
X109005666Y-135431020D01*
X108998615Y-135428270D01*
X108689753Y-135328808D01*
X108682420Y-135326925D01*
X108363845Y-135265289D01*
X108356345Y-135264302D01*
X108100081Y-135246158D01*
X108095631Y-135246000D01*
X98772115Y-135246000D01*
X98756876Y-135250475D01*
X98755671Y-135251865D01*
X98754000Y-135259548D01*
X98754000Y-137727885D01*
X98246000Y-137727885D01*
X98246000Y-135264115D01*
X98241525Y-135248876D01*
X98240135Y-135247671D01*
X98232452Y-135246000D01*
X88918392Y-135246000D01*
X88914618Y-135246113D01*
X88672316Y-135260721D01*
X88664814Y-135261629D01*
X88345600Y-135319928D01*
X88338267Y-135321729D01*
X88028366Y-135417956D01*
X88021293Y-135420628D01*
X87725219Y-135553379D01*
X87718492Y-135556896D01*
X87440519Y-135724249D01*
X87434275Y-135728540D01*
X87178413Y-135928082D01*
X87172723Y-135933099D01*
X86942686Y-136161935D01*
X86937656Y-136167580D01*
X86736771Y-136422401D01*
X86732446Y-136428624D01*
X86563630Y-136705734D01*
X86560095Y-136712411D01*
X86425789Y-137007799D01*
X86423076Y-137014869D01*
X86325236Y-137324236D01*
X86323389Y-137331587D01*
X86263422Y-137650477D01*
X86262474Y-137657987D01*
X86257890Y-137727922D01*
X83508000Y-137727922D01*
X83508000Y-130500000D01*
X94786411Y-130500000D01*
X94806754Y-130888176D01*
X94867562Y-131272099D01*
X94968167Y-131647562D01*
X95107468Y-132010453D01*
X95283938Y-132356794D01*
X95495643Y-132682793D01*
X95740266Y-132984876D01*
X96015124Y-133259734D01*
X96317207Y-133504357D01*
X96643205Y-133716062D01*
X96646139Y-133717557D01*
X96646146Y-133717561D01*
X96986607Y-133891034D01*
X96989547Y-133892532D01*
X97352438Y-134031833D01*
X97727901Y-134132438D01*
X97931793Y-134164732D01*
X98108576Y-134192732D01*
X98108584Y-134192733D01*
X98111824Y-134193246D01*
X98500000Y-134213589D01*
X98888176Y-134193246D01*
X98891416Y-134192733D01*
X98891424Y-134192732D01*
X99068207Y-134164732D01*
X99272099Y-134132438D01*
X99647562Y-134031833D01*
X100010453Y-133892532D01*
X100013393Y-133891034D01*
X100353854Y-133717561D01*
X100353861Y-133717557D01*
X100356795Y-133716062D01*
X100682793Y-133504357D01*
X100984876Y-133259734D01*
X101259734Y-132984876D01*
X101504357Y-132682793D01*
X101716062Y-132356794D01*
X101892532Y-132010453D01*
X102031833Y-131647562D01*
X102132438Y-131272099D01*
X102193246Y-130888176D01*
X102213589Y-130500000D01*
X102193246Y-130111824D01*
X102132438Y-129727901D01*
X102031833Y-129352438D01*
X101892532Y-128989547D01*
X101716062Y-128643206D01*
X101504357Y-128317207D01*
X101259734Y-128015124D01*
X100984876Y-127740266D01*
X100682793Y-127495643D01*
X100356795Y-127283938D01*
X100353861Y-127282443D01*
X100353854Y-127282439D01*
X100013393Y-127108966D01*
X100010453Y-127107468D01*
X99647562Y-126968167D01*
X99272099Y-126867562D01*
X99068207Y-126835268D01*
X98891424Y-126807268D01*
X98891416Y-126807267D01*
X98888176Y-126806754D01*
X98500000Y-126786411D01*
X98111824Y-126806754D01*
X98108584Y-126807267D01*
X98108576Y-126807268D01*
X97931793Y-126835268D01*
X97727901Y-126867562D01*
X97352438Y-126968167D01*
X96989547Y-127107468D01*
X96986607Y-127108966D01*
X96646147Y-127282439D01*
X96646140Y-127282443D01*
X96643206Y-127283938D01*
X96317207Y-127495643D01*
X96015124Y-127740266D01*
X95740266Y-128015124D01*
X95495643Y-128317207D01*
X95283938Y-128643206D01*
X95107468Y-128989547D01*
X94968167Y-129352438D01*
X94867562Y-129727901D01*
X94806754Y-130111824D01*
X94786411Y-130500000D01*
X83508000Y-130500000D01*
X83508000Y-118047289D01*
X115317265Y-118047289D01*
X115326561Y-118059304D01*
X115366100Y-118086989D01*
X115375590Y-118092469D01*
X115564486Y-118180553D01*
X115574778Y-118184299D01*
X115776098Y-118238242D01*
X115786893Y-118240145D01*
X115994525Y-118258311D01*
X116005475Y-118258311D01*
X116213107Y-118240145D01*
X116223902Y-118238242D01*
X116425222Y-118184299D01*
X116435514Y-118180553D01*
X116624410Y-118092469D01*
X116633900Y-118086989D01*
X116674278Y-118058717D01*
X116682652Y-118048242D01*
X116682151Y-118047289D01*
X128317265Y-118047289D01*
X128326561Y-118059304D01*
X128366100Y-118086989D01*
X128375590Y-118092469D01*
X128564486Y-118180553D01*
X128574778Y-118184299D01*
X128776098Y-118238242D01*
X128786893Y-118240145D01*
X128994525Y-118258311D01*
X129005475Y-118258311D01*
X129213107Y-118240145D01*
X129223902Y-118238242D01*
X129425222Y-118184299D01*
X129435514Y-118180553D01*
X129624410Y-118092469D01*
X129633900Y-118086989D01*
X129674278Y-118058717D01*
X129682652Y-118048242D01*
X129675583Y-118034793D01*
X129012812Y-117372022D01*
X128998868Y-117364408D01*
X128997035Y-117364539D01*
X128990420Y-117368790D01*
X128323695Y-118035515D01*
X128317265Y-118047289D01*
X116682151Y-118047289D01*
X116675583Y-118034793D01*
X116012812Y-117372022D01*
X115998868Y-117364408D01*
X115997035Y-117364539D01*
X115990420Y-117368790D01*
X115323695Y-118035515D01*
X115317265Y-118047289D01*
X83508000Y-118047289D01*
X83508000Y-117005475D01*
X114741689Y-117005475D01*
X114759855Y-117213107D01*
X114761758Y-117223902D01*
X114815701Y-117425222D01*
X114819447Y-117435514D01*
X114907531Y-117624410D01*
X114913011Y-117633900D01*
X114941283Y-117674278D01*
X114951758Y-117682652D01*
X114965207Y-117675583D01*
X115627978Y-117012812D01*
X115634356Y-117001132D01*
X116364408Y-117001132D01*
X116364539Y-117002965D01*
X116368790Y-117009580D01*
X117035515Y-117676305D01*
X117047289Y-117682735D01*
X117059304Y-117673439D01*
X117086989Y-117633900D01*
X117092469Y-117624410D01*
X117180553Y-117435514D01*
X117184299Y-117425222D01*
X117238242Y-117223902D01*
X117240145Y-117213107D01*
X117258311Y-117005475D01*
X127741689Y-117005475D01*
X127759855Y-117213107D01*
X127761758Y-117223902D01*
X127815701Y-117425222D01*
X127819447Y-117435514D01*
X127907531Y-117624410D01*
X127913011Y-117633900D01*
X127941283Y-117674278D01*
X127951758Y-117682652D01*
X127965207Y-117675583D01*
X128627978Y-117012812D01*
X128634356Y-117001132D01*
X129364408Y-117001132D01*
X129364539Y-117002965D01*
X129368790Y-117009580D01*
X130035515Y-117676305D01*
X130047289Y-117682735D01*
X130059304Y-117673439D01*
X130086989Y-117633900D01*
X130092469Y-117624410D01*
X130180553Y-117435514D01*
X130184299Y-117425222D01*
X130238242Y-117223902D01*
X130240145Y-117213107D01*
X130258311Y-117005475D01*
X130258311Y-116994525D01*
X130240145Y-116786893D01*
X130238242Y-116776098D01*
X130184299Y-116574778D01*
X130180553Y-116564486D01*
X130092469Y-116375590D01*
X130086989Y-116366100D01*
X130058717Y-116325722D01*
X130048242Y-116317348D01*
X130034793Y-116324417D01*
X129372022Y-116987188D01*
X129364408Y-117001132D01*
X128634356Y-117001132D01*
X128635592Y-116998868D01*
X128635461Y-116997035D01*
X128631210Y-116990420D01*
X127964485Y-116323695D01*
X127952711Y-116317265D01*
X127940696Y-116326561D01*
X127913011Y-116366100D01*
X127907531Y-116375590D01*
X127819447Y-116564486D01*
X127815701Y-116574778D01*
X127761758Y-116776098D01*
X127759855Y-116786893D01*
X127741689Y-116994525D01*
X127741689Y-117005475D01*
X117258311Y-117005475D01*
X117258311Y-116994525D01*
X117240145Y-116786893D01*
X117238242Y-116776098D01*
X117184299Y-116574778D01*
X117180553Y-116564486D01*
X117092469Y-116375590D01*
X117086989Y-116366100D01*
X117058717Y-116325722D01*
X117048242Y-116317348D01*
X117034793Y-116324417D01*
X116372022Y-116987188D01*
X116364408Y-117001132D01*
X115634356Y-117001132D01*
X115635592Y-116998868D01*
X115635461Y-116997035D01*
X115631210Y-116990420D01*
X114964485Y-116323695D01*
X114952711Y-116317265D01*
X114940696Y-116326561D01*
X114913011Y-116366100D01*
X114907531Y-116375590D01*
X114819447Y-116564486D01*
X114815701Y-116574778D01*
X114761758Y-116776098D01*
X114759855Y-116786893D01*
X114741689Y-116994525D01*
X114741689Y-117005475D01*
X83508000Y-117005475D01*
X83508000Y-115951758D01*
X115317348Y-115951758D01*
X115324417Y-115965207D01*
X115987188Y-116627978D01*
X116001132Y-116635592D01*
X116002965Y-116635461D01*
X116009580Y-116631210D01*
X116676305Y-115964485D01*
X116682735Y-115952711D01*
X116681998Y-115951758D01*
X128317348Y-115951758D01*
X128324417Y-115965207D01*
X128987188Y-116627978D01*
X129001132Y-116635592D01*
X129002965Y-116635461D01*
X129009580Y-116631210D01*
X129676305Y-115964485D01*
X129682735Y-115952711D01*
X129673439Y-115940696D01*
X129633900Y-115913011D01*
X129624410Y-115907531D01*
X129435514Y-115819447D01*
X129425222Y-115815701D01*
X129223902Y-115761758D01*
X129213107Y-115759855D01*
X129005475Y-115741689D01*
X128994525Y-115741689D01*
X128786893Y-115759855D01*
X128776098Y-115761758D01*
X128574778Y-115815701D01*
X128564486Y-115819447D01*
X128375590Y-115907531D01*
X128366100Y-115913011D01*
X128325722Y-115941283D01*
X128317348Y-115951758D01*
X116681998Y-115951758D01*
X116673439Y-115940696D01*
X116633900Y-115913011D01*
X116624410Y-115907531D01*
X116435514Y-115819447D01*
X116425222Y-115815701D01*
X116223902Y-115761758D01*
X116213107Y-115759855D01*
X116005475Y-115741689D01*
X115994525Y-115741689D01*
X115786893Y-115759855D01*
X115776098Y-115761758D01*
X115574778Y-115815701D01*
X115564486Y-115819447D01*
X115375590Y-115907531D01*
X115366100Y-115913011D01*
X115325722Y-115941283D01*
X115317348Y-115951758D01*
X83508000Y-115951758D01*
X83508000Y-101047289D01*
X107317265Y-101047289D01*
X107326561Y-101059304D01*
X107366100Y-101086989D01*
X107375590Y-101092469D01*
X107564486Y-101180553D01*
X107574778Y-101184299D01*
X107776098Y-101238242D01*
X107786893Y-101240145D01*
X107994525Y-101258311D01*
X108005475Y-101258311D01*
X108213107Y-101240145D01*
X108223902Y-101238242D01*
X108425222Y-101184299D01*
X108435514Y-101180553D01*
X108624410Y-101092469D01*
X108633900Y-101086989D01*
X108674278Y-101058717D01*
X108682652Y-101048242D01*
X108675583Y-101034793D01*
X108012812Y-100372022D01*
X107998868Y-100364408D01*
X107997035Y-100364539D01*
X107990420Y-100368790D01*
X107323695Y-101035515D01*
X107317265Y-101047289D01*
X83508000Y-101047289D01*
X83508000Y-100005475D01*
X106741689Y-100005475D01*
X106759855Y-100213107D01*
X106761758Y-100223902D01*
X106815701Y-100425222D01*
X106819447Y-100435514D01*
X106907531Y-100624410D01*
X106913011Y-100633900D01*
X106941283Y-100674278D01*
X106951758Y-100682652D01*
X106965207Y-100675583D01*
X107627978Y-100012812D01*
X107634356Y-100001132D01*
X108364408Y-100001132D01*
X108364539Y-100002965D01*
X108368790Y-100009580D01*
X109035515Y-100676305D01*
X109047289Y-100682735D01*
X109059304Y-100673439D01*
X109086989Y-100633900D01*
X109092469Y-100624410D01*
X109180553Y-100435514D01*
X109184299Y-100425222D01*
X109238242Y-100223902D01*
X109240145Y-100213107D01*
X109258311Y-100005475D01*
X109258311Y-99994525D01*
X109240145Y-99786893D01*
X109238242Y-99776098D01*
X109184299Y-99574778D01*
X109180553Y-99564486D01*
X109092469Y-99375590D01*
X109086989Y-99366100D01*
X109058717Y-99325722D01*
X109048242Y-99317348D01*
X109034793Y-99324417D01*
X108372022Y-99987188D01*
X108364408Y-100001132D01*
X107634356Y-100001132D01*
X107635592Y-99998868D01*
X107635461Y-99997035D01*
X107631210Y-99990420D01*
X106964485Y-99323695D01*
X106952711Y-99317265D01*
X106940696Y-99326561D01*
X106913011Y-99366100D01*
X106907531Y-99375590D01*
X106819447Y-99564486D01*
X106815701Y-99574778D01*
X106761758Y-99776098D01*
X106759855Y-99786893D01*
X106741689Y-99994525D01*
X106741689Y-100005475D01*
X83508000Y-100005475D01*
X83508000Y-98951758D01*
X107317348Y-98951758D01*
X107324417Y-98965207D01*
X107987188Y-99627978D01*
X108001132Y-99635592D01*
X108002965Y-99635461D01*
X108009580Y-99631210D01*
X108676305Y-98964485D01*
X108682735Y-98952711D01*
X108673439Y-98940696D01*
X108633900Y-98913011D01*
X108624410Y-98907531D01*
X108435514Y-98819447D01*
X108425222Y-98815701D01*
X108223902Y-98761758D01*
X108213107Y-98759855D01*
X108005475Y-98741689D01*
X107994525Y-98741689D01*
X107786893Y-98759855D01*
X107776098Y-98761758D01*
X107574778Y-98815701D01*
X107564486Y-98819447D01*
X107375590Y-98907531D01*
X107366100Y-98913011D01*
X107325722Y-98941283D01*
X107317348Y-98951758D01*
X83508000Y-98951758D01*
X83508000Y-95626000D01*
X83528002Y-95557879D01*
X83581658Y-95511386D01*
X83634000Y-95500000D01*
X112858553Y-95500000D01*
X112926674Y-95520002D01*
G37*
%TD.AperFunction*%
%TD*%
%TA.AperFunction,Conductor*%
%TO.N,DIN*%
G36*
X111942121Y-52528002D02*
G01*
X111988614Y-52581658D01*
X112000000Y-52634000D01*
X112000000Y-89874000D01*
X111979998Y-89942121D01*
X111926342Y-89988614D01*
X111874000Y-90000000D01*
X83634000Y-90000000D01*
X83565879Y-89979998D01*
X83519386Y-89926342D01*
X83508000Y-89874000D01*
X83508000Y-83047289D01*
X108317265Y-83047289D01*
X108326561Y-83059304D01*
X108366100Y-83086989D01*
X108375590Y-83092469D01*
X108564486Y-83180553D01*
X108574778Y-83184299D01*
X108776098Y-83238242D01*
X108786893Y-83240145D01*
X108994525Y-83258311D01*
X109005475Y-83258311D01*
X109213107Y-83240145D01*
X109223902Y-83238242D01*
X109425222Y-83184299D01*
X109435514Y-83180553D01*
X109624410Y-83092469D01*
X109633900Y-83086989D01*
X109674278Y-83058717D01*
X109682652Y-83048242D01*
X109675583Y-83034793D01*
X109012812Y-82372022D01*
X108998868Y-82364408D01*
X108997035Y-82364539D01*
X108990420Y-82368790D01*
X108323695Y-83035515D01*
X108317265Y-83047289D01*
X83508000Y-83047289D01*
X83508000Y-82005475D01*
X107741689Y-82005475D01*
X107759855Y-82213107D01*
X107761758Y-82223902D01*
X107815701Y-82425222D01*
X107819447Y-82435514D01*
X107907531Y-82624410D01*
X107913011Y-82633900D01*
X107941283Y-82674278D01*
X107951758Y-82682652D01*
X107965207Y-82675583D01*
X108627978Y-82012812D01*
X108634356Y-82001132D01*
X109364408Y-82001132D01*
X109364539Y-82002965D01*
X109368790Y-82009580D01*
X110035515Y-82676305D01*
X110047289Y-82682735D01*
X110059304Y-82673439D01*
X110086989Y-82633900D01*
X110092469Y-82624410D01*
X110180553Y-82435514D01*
X110184299Y-82425222D01*
X110238242Y-82223902D01*
X110240145Y-82213107D01*
X110258311Y-82005475D01*
X110258311Y-81994525D01*
X110240145Y-81786893D01*
X110238242Y-81776098D01*
X110184299Y-81574778D01*
X110180553Y-81564486D01*
X110092469Y-81375590D01*
X110086989Y-81366100D01*
X110058717Y-81325722D01*
X110048242Y-81317348D01*
X110034793Y-81324417D01*
X109372022Y-81987188D01*
X109364408Y-82001132D01*
X108634356Y-82001132D01*
X108635592Y-81998868D01*
X108635461Y-81997035D01*
X108631210Y-81990420D01*
X107964485Y-81323695D01*
X107952711Y-81317265D01*
X107940696Y-81326561D01*
X107913011Y-81366100D01*
X107907531Y-81375590D01*
X107819447Y-81564486D01*
X107815701Y-81574778D01*
X107761758Y-81776098D01*
X107759855Y-81786893D01*
X107741689Y-81994525D01*
X107741689Y-82005475D01*
X83508000Y-82005475D01*
X83508000Y-80951758D01*
X108317348Y-80951758D01*
X108324417Y-80965207D01*
X108987188Y-81627978D01*
X109001132Y-81635592D01*
X109002965Y-81635461D01*
X109009580Y-81631210D01*
X109676305Y-80964485D01*
X109682735Y-80952711D01*
X109673439Y-80940696D01*
X109633900Y-80913011D01*
X109624410Y-80907531D01*
X109435514Y-80819447D01*
X109425222Y-80815701D01*
X109223902Y-80761758D01*
X109213107Y-80759855D01*
X109005475Y-80741689D01*
X108994525Y-80741689D01*
X108786893Y-80759855D01*
X108776098Y-80761758D01*
X108574778Y-80815701D01*
X108564486Y-80819447D01*
X108375590Y-80907531D01*
X108366100Y-80913011D01*
X108325722Y-80941283D01*
X108317348Y-80951758D01*
X83508000Y-80951758D01*
X83508000Y-67500000D01*
X94786411Y-67500000D01*
X94806754Y-67888176D01*
X94867562Y-68272099D01*
X94968167Y-68647562D01*
X95107468Y-69010453D01*
X95283938Y-69356794D01*
X95495643Y-69682793D01*
X95740266Y-69984876D01*
X96015124Y-70259734D01*
X96317207Y-70504357D01*
X96643205Y-70716062D01*
X96646139Y-70717557D01*
X96646146Y-70717561D01*
X96986607Y-70891034D01*
X96989547Y-70892532D01*
X97352438Y-71031833D01*
X97727901Y-71132438D01*
X97931793Y-71164732D01*
X98108576Y-71192732D01*
X98108584Y-71192733D01*
X98111824Y-71193246D01*
X98500000Y-71213589D01*
X98888176Y-71193246D01*
X98891416Y-71192733D01*
X98891424Y-71192732D01*
X99068207Y-71164732D01*
X99272099Y-71132438D01*
X99647562Y-71031833D01*
X100010453Y-70892532D01*
X100013393Y-70891034D01*
X100353854Y-70717561D01*
X100353861Y-70717557D01*
X100356795Y-70716062D01*
X100682793Y-70504357D01*
X100984876Y-70259734D01*
X101259734Y-69984876D01*
X101504357Y-69682793D01*
X101716062Y-69356794D01*
X101892532Y-69010453D01*
X102031833Y-68647562D01*
X102132438Y-68272099D01*
X102193246Y-67888176D01*
X102213589Y-67500000D01*
X102193246Y-67111824D01*
X102132438Y-66727901D01*
X102031833Y-66352438D01*
X101892532Y-65989547D01*
X101716062Y-65643206D01*
X101504357Y-65317207D01*
X101259734Y-65015124D01*
X100984876Y-64740266D01*
X100682793Y-64495643D01*
X100356795Y-64283938D01*
X100353861Y-64282443D01*
X100353854Y-64282439D01*
X100013393Y-64108966D01*
X100010453Y-64107468D01*
X99647562Y-63968167D01*
X99272099Y-63867562D01*
X99068207Y-63835268D01*
X98891424Y-63807268D01*
X98891416Y-63807267D01*
X98888176Y-63806754D01*
X98500000Y-63786411D01*
X98111824Y-63806754D01*
X98108584Y-63807267D01*
X98108576Y-63807268D01*
X97931793Y-63835268D01*
X97727901Y-63867562D01*
X97352438Y-63968167D01*
X96989547Y-64107468D01*
X96986607Y-64108966D01*
X96646147Y-64282439D01*
X96646140Y-64282443D01*
X96643206Y-64283938D01*
X96317207Y-64495643D01*
X96015124Y-64740266D01*
X95740266Y-65015124D01*
X95495643Y-65317207D01*
X95283938Y-65643206D01*
X95107468Y-65989547D01*
X94968167Y-66352438D01*
X94867562Y-66727901D01*
X94806754Y-67111824D01*
X94786411Y-67500000D01*
X83508000Y-67500000D01*
X83508000Y-60269276D01*
X86256619Y-60269276D01*
X86259043Y-60313334D01*
X86259912Y-60320845D01*
X86316537Y-60640354D01*
X86318304Y-60647714D01*
X86412898Y-60958083D01*
X86415546Y-60965203D01*
X86546739Y-61261955D01*
X86550216Y-61268692D01*
X86716120Y-61547552D01*
X86720368Y-61553803D01*
X86918574Y-61810715D01*
X86923559Y-61816430D01*
X87151180Y-62047654D01*
X87156816Y-62052729D01*
X87410573Y-62254938D01*
X87416771Y-62259294D01*
X87692987Y-62429555D01*
X87699663Y-62433135D01*
X87994334Y-62568980D01*
X88001385Y-62571730D01*
X88310247Y-62671192D01*
X88317580Y-62673075D01*
X88636155Y-62734711D01*
X88643655Y-62735698D01*
X88899919Y-62753842D01*
X88904369Y-62754000D01*
X98227885Y-62754000D01*
X98243124Y-62749525D01*
X98244329Y-62748135D01*
X98246000Y-62740452D01*
X98246000Y-62735885D01*
X98754000Y-62735885D01*
X98758475Y-62751124D01*
X98759865Y-62752329D01*
X98767548Y-62754000D01*
X108081609Y-62754000D01*
X108085382Y-62753887D01*
X108327684Y-62739279D01*
X108335186Y-62738371D01*
X108654400Y-62680072D01*
X108661733Y-62678271D01*
X108971634Y-62582044D01*
X108978707Y-62579372D01*
X109274781Y-62446621D01*
X109281508Y-62443104D01*
X109559481Y-62275751D01*
X109565725Y-62271460D01*
X109821587Y-62071918D01*
X109827277Y-62066901D01*
X110057314Y-61838065D01*
X110062344Y-61832420D01*
X110263229Y-61577599D01*
X110267554Y-61571376D01*
X110436370Y-61294266D01*
X110439905Y-61287589D01*
X110574211Y-60992201D01*
X110576924Y-60985131D01*
X110674764Y-60675764D01*
X110676611Y-60668413D01*
X110736578Y-60349523D01*
X110737526Y-60342013D01*
X110742110Y-60272078D01*
X110738687Y-60256779D01*
X110727661Y-60254000D01*
X98772115Y-60254000D01*
X98756876Y-60258475D01*
X98755671Y-60259865D01*
X98754000Y-60267548D01*
X98754000Y-62735885D01*
X98246000Y-62735885D01*
X98246000Y-60272115D01*
X98241525Y-60256876D01*
X98240135Y-60255671D01*
X98232452Y-60254000D01*
X86273893Y-60254000D01*
X86258659Y-60258473D01*
X86256619Y-60269276D01*
X83508000Y-60269276D01*
X83508000Y-59727922D01*
X86257890Y-59727922D01*
X86261313Y-59743221D01*
X86272339Y-59746000D01*
X98227885Y-59746000D01*
X98243124Y-59741525D01*
X98244329Y-59740135D01*
X98246000Y-59732452D01*
X98246000Y-59727885D01*
X98754000Y-59727885D01*
X98758475Y-59743124D01*
X98759865Y-59744329D01*
X98767548Y-59746000D01*
X110726107Y-59746000D01*
X110741341Y-59741527D01*
X110743381Y-59730724D01*
X110740957Y-59686666D01*
X110740088Y-59679155D01*
X110683463Y-59359646D01*
X110681696Y-59352286D01*
X110587102Y-59041917D01*
X110584454Y-59034797D01*
X110453261Y-58738045D01*
X110449784Y-58731308D01*
X110283880Y-58452448D01*
X110279632Y-58446197D01*
X110081426Y-58189285D01*
X110076441Y-58183570D01*
X109848820Y-57952346D01*
X109843184Y-57947271D01*
X109589427Y-57745062D01*
X109583229Y-57740706D01*
X109307013Y-57570445D01*
X109300337Y-57566865D01*
X109005666Y-57431020D01*
X108998615Y-57428270D01*
X108689753Y-57328808D01*
X108682420Y-57326925D01*
X108363845Y-57265289D01*
X108356345Y-57264302D01*
X108100081Y-57246158D01*
X108095631Y-57246000D01*
X98772115Y-57246000D01*
X98756876Y-57250475D01*
X98755671Y-57251865D01*
X98754000Y-57259548D01*
X98754000Y-59727885D01*
X98246000Y-59727885D01*
X98246000Y-57264115D01*
X98241525Y-57248876D01*
X98240135Y-57247671D01*
X98232452Y-57246000D01*
X88918392Y-57246000D01*
X88914618Y-57246113D01*
X88672316Y-57260721D01*
X88664814Y-57261629D01*
X88345600Y-57319928D01*
X88338267Y-57321729D01*
X88028366Y-57417956D01*
X88021293Y-57420628D01*
X87725219Y-57553379D01*
X87718492Y-57556896D01*
X87440519Y-57724249D01*
X87434275Y-57728540D01*
X87178413Y-57928082D01*
X87172723Y-57933099D01*
X86942686Y-58161935D01*
X86937656Y-58167580D01*
X86736771Y-58422401D01*
X86732446Y-58428624D01*
X86563630Y-58705734D01*
X86560095Y-58712411D01*
X86425789Y-59007799D01*
X86423076Y-59014869D01*
X86325236Y-59324236D01*
X86323389Y-59331587D01*
X86263422Y-59650477D01*
X86262474Y-59657987D01*
X86257890Y-59727922D01*
X83508000Y-59727922D01*
X83508000Y-52634000D01*
X83528002Y-52565879D01*
X83581658Y-52519386D01*
X83634000Y-52508000D01*
X111874000Y-52508000D01*
X111942121Y-52528002D01*
G37*
%TD.AperFunction*%
%TD*%
M02*
