M48
; DRILL file {KiCad (6.0.0)} date Mon Jun 20 09:58:42 2022
; FORMAT={-:-/ absolute / metric / decimal}
; #@! TF.CreationDate,2022-06-20T09:58:42+02:00
; #@! TF.GenerationSoftware,Kicad,Pcbnew,(6.0.0)
; #@! TF.FileFunction,Plated,1,2,PTH
FMAT,2
METRIC
; #@! TA.AperFunction,Plated,PTH,ComponentDrill
T1C0.500
; #@! TA.AperFunction,Plated,PTH,ComponentDrill
T2C2.000
; #@! TA.AperFunction,Plated,PTH,ComponentDrill
T3C3.200
%
G90
G05
T1
X96.1Y-67.5
X96.1Y-130.5
X96.803Y-65.803
X96.803Y-69.197
X96.803Y-128.803
X96.803Y-132.197
X98.5Y-65.1
X98.5Y-69.9
X98.5Y-128.1
X98.5Y-132.9
X100.197Y-65.803
X100.197Y-69.197
X100.197Y-128.803
X100.197Y-132.197
X100.9Y-67.5
X100.9Y-130.5
X159.1Y-67.5
X159.1Y-130.5
X159.803Y-65.803
X159.803Y-69.197
X159.803Y-128.803
X159.803Y-132.197
X161.5Y-65.1
X161.5Y-69.9
X161.5Y-128.1
X161.5Y-132.9
X163.197Y-65.803
X163.197Y-69.197
X163.197Y-128.803
X163.197Y-132.197
X163.9Y-67.5
X163.9Y-130.5
T3
X98.5Y-67.5
X98.5Y-130.5
X161.5Y-67.5
X161.5Y-130.5
T2
X90.0Y-60.0G85X107.0Y-60.0
G05
X90.0Y-138.0G85X107.0Y-138.0
G05
X153.0Y-60.0G85X170.0Y-60.0
G05
X153.0Y-138.0G85X170.0Y-138.0
G05
T0
M30
