%TF.GenerationSoftware,KiCad,Pcbnew,(6.0.0)*%
%TF.CreationDate,2022-06-20T09:58:44+02:00*%
%TF.ProjectId,bottom_plate_pcb,626f7474-6f6d-45f7-906c-6174655f7063,rev?*%
%TF.SameCoordinates,Original*%
%TF.FileFunction,Copper,L2,Bot*%
%TF.FilePolarity,Positive*%
%FSLAX46Y46*%
G04 Gerber Fmt 4.6, Leading zero omitted, Abs format (unit mm)*
G04 Created by KiCad (PCBNEW (6.0.0)) date 2022-06-20 09:58:44*
%MOMM*%
%LPD*%
G01*
G04 APERTURE LIST*
%TA.AperFunction,ComponentPad*%
%ADD10C,0.800000*%
%TD*%
%TA.AperFunction,ComponentPad*%
%ADD11C,6.400000*%
%TD*%
%TA.AperFunction,ComponentPad*%
%ADD12O,24.000000X5.000000*%
%TD*%
G04 APERTURE END LIST*
D10*
%TO.P,REF\u002A\u002A,1*%
%TO.N,N/C*%
X98500000Y-128100000D03*
X96100000Y-130500000D03*
X96802944Y-132197056D03*
X96802944Y-128802944D03*
X98500000Y-132900000D03*
X100900000Y-130500000D03*
X100197056Y-132197056D03*
X100197056Y-128802944D03*
D11*
X98500000Y-130500000D03*
%TD*%
D12*
%TO.P,J4,1,Pin_1*%
%TO.N,DIN*%
X98500000Y-60000000D03*
%TD*%
D10*
%TO.P,REF\u002A\u002A,1*%
%TO.N,N/C*%
X159802944Y-132197056D03*
X161500000Y-132900000D03*
X159802944Y-128802944D03*
X163900000Y-130500000D03*
X163197056Y-128802944D03*
X159100000Y-130500000D03*
X163197056Y-132197056D03*
D11*
X161500000Y-130500000D03*
D10*
X161500000Y-128100000D03*
%TD*%
%TO.P,REF\u002A\u002A,1*%
%TO.N,N/C*%
X161500000Y-69900000D03*
X159802944Y-69197056D03*
X163197056Y-69197056D03*
X161500000Y-65100000D03*
D11*
X161500000Y-67500000D03*
D10*
X159802944Y-65802944D03*
X163197056Y-65802944D03*
X163900000Y-67500000D03*
X159100000Y-67500000D03*
%TD*%
D12*
%TO.P,J3,1,Pin_1*%
%TO.N,GND*%
X161500000Y-60000000D03*
%TD*%
D11*
%TO.P,REF\u002A\u002A,1*%
%TO.N,N/C*%
X98500000Y-67500000D03*
D10*
X100197056Y-65802944D03*
X98500000Y-69900000D03*
X96100000Y-67500000D03*
X100900000Y-67500000D03*
X100197056Y-69197056D03*
X96802944Y-65802944D03*
X98500000Y-65100000D03*
X96802944Y-69197056D03*
%TD*%
D12*
%TO.P,J2,1,Pin_1*%
%TO.N,+5V*%
X98500000Y-138000000D03*
%TD*%
%TO.P,J1,1,Pin_1*%
%TO.N,DOUT*%
X161500000Y-138000000D03*
%TD*%
%TA.AperFunction,Conductor*%
%TO.N,GND*%
G36*
X176434121Y-52528002D02*
G01*
X176480614Y-52581658D01*
X176492000Y-52634000D01*
X176492000Y-145366000D01*
X176471998Y-145434121D01*
X176418342Y-145480614D01*
X176366000Y-145492000D01*
X83634000Y-145492000D01*
X83565879Y-145471998D01*
X83519386Y-145418342D01*
X83508000Y-145366000D01*
X83508000Y-138126196D01*
X85989044Y-138126196D01*
X85989405Y-138129810D01*
X85989405Y-138129816D01*
X86013694Y-138373157D01*
X86023503Y-138471431D01*
X86097414Y-138810417D01*
X86209797Y-139138661D01*
X86359163Y-139451812D01*
X86543532Y-139745721D01*
X86545804Y-139748557D01*
X86545809Y-139748564D01*
X86602252Y-139819016D01*
X86760459Y-140016491D01*
X87007071Y-140260534D01*
X87280098Y-140474614D01*
X87575921Y-140655895D01*
X87579206Y-140657420D01*
X87579210Y-140657422D01*
X87818653Y-140768567D01*
X87890620Y-140801973D01*
X87994926Y-140836469D01*
X88216578Y-140909774D01*
X88216583Y-140909775D01*
X88220023Y-140910913D01*
X88223578Y-140911649D01*
X88223581Y-140911650D01*
X88556214Y-140980535D01*
X88556217Y-140980535D01*
X88559764Y-140981270D01*
X88698221Y-140993627D01*
X88862076Y-141008251D01*
X88862082Y-141008251D01*
X88864869Y-141008500D01*
X108088432Y-141008500D01*
X108090251Y-141008395D01*
X108090255Y-141008395D01*
X108342754Y-140993836D01*
X108342759Y-140993835D01*
X108346374Y-140993627D01*
X108421388Y-140980535D01*
X108684585Y-140934600D01*
X108684592Y-140934598D01*
X108688158Y-140933976D01*
X108691633Y-140932947D01*
X108691640Y-140932945D01*
X108824863Y-140893482D01*
X109020820Y-140835437D01*
X109024159Y-140834013D01*
X109336614Y-140700740D01*
X109336617Y-140700738D01*
X109339952Y-140699316D01*
X109343099Y-140697521D01*
X109343103Y-140697519D01*
X109638184Y-140529208D01*
X109641324Y-140527417D01*
X109920940Y-140322018D01*
X110175096Y-140085842D01*
X110400422Y-139822019D01*
X110593931Y-139534047D01*
X110753060Y-139225741D01*
X110875698Y-138901189D01*
X110960220Y-138564692D01*
X111005506Y-138220711D01*
X111006991Y-138126196D01*
X148989044Y-138126196D01*
X148989405Y-138129810D01*
X148989405Y-138129816D01*
X149013694Y-138373157D01*
X149023503Y-138471431D01*
X149097414Y-138810417D01*
X149209797Y-139138661D01*
X149359163Y-139451812D01*
X149543532Y-139745721D01*
X149545804Y-139748557D01*
X149545809Y-139748564D01*
X149602252Y-139819016D01*
X149760459Y-140016491D01*
X150007071Y-140260534D01*
X150280098Y-140474614D01*
X150575921Y-140655895D01*
X150579206Y-140657420D01*
X150579210Y-140657422D01*
X150818653Y-140768567D01*
X150890620Y-140801973D01*
X150994926Y-140836469D01*
X151216578Y-140909774D01*
X151216583Y-140909775D01*
X151220023Y-140910913D01*
X151223578Y-140911649D01*
X151223581Y-140911650D01*
X151556214Y-140980535D01*
X151556217Y-140980535D01*
X151559764Y-140981270D01*
X151698221Y-140993627D01*
X151862076Y-141008251D01*
X151862082Y-141008251D01*
X151864869Y-141008500D01*
X171088432Y-141008500D01*
X171090251Y-141008395D01*
X171090255Y-141008395D01*
X171342754Y-140993836D01*
X171342759Y-140993835D01*
X171346374Y-140993627D01*
X171421388Y-140980535D01*
X171684585Y-140934600D01*
X171684592Y-140934598D01*
X171688158Y-140933976D01*
X171691633Y-140932947D01*
X171691640Y-140932945D01*
X171824863Y-140893482D01*
X172020820Y-140835437D01*
X172024159Y-140834013D01*
X172336614Y-140700740D01*
X172336617Y-140700738D01*
X172339952Y-140699316D01*
X172343099Y-140697521D01*
X172343103Y-140697519D01*
X172638184Y-140529208D01*
X172641324Y-140527417D01*
X172920940Y-140322018D01*
X173175096Y-140085842D01*
X173400422Y-139822019D01*
X173593931Y-139534047D01*
X173753060Y-139225741D01*
X173875698Y-138901189D01*
X173960220Y-138564692D01*
X174005506Y-138220711D01*
X174010956Y-137873804D01*
X174001163Y-137775685D01*
X173976857Y-137532177D01*
X173976497Y-137528569D01*
X173902586Y-137189583D01*
X173790203Y-136861339D01*
X173640837Y-136548188D01*
X173456468Y-136254279D01*
X173454196Y-136251443D01*
X173454191Y-136251436D01*
X173241813Y-135986345D01*
X173239541Y-135983509D01*
X172992929Y-135739466D01*
X172719902Y-135525386D01*
X172424079Y-135344105D01*
X172420794Y-135342580D01*
X172420790Y-135342578D01*
X172112663Y-135199551D01*
X172109380Y-135198027D01*
X171939112Y-135141716D01*
X171783422Y-135090226D01*
X171783417Y-135090225D01*
X171779977Y-135089087D01*
X171776422Y-135088351D01*
X171776419Y-135088350D01*
X171443786Y-135019465D01*
X171443783Y-135019465D01*
X171440236Y-135018730D01*
X171285947Y-135004960D01*
X171137924Y-134991749D01*
X171137918Y-134991749D01*
X171135131Y-134991500D01*
X151911568Y-134991500D01*
X151909749Y-134991605D01*
X151909745Y-134991605D01*
X151657246Y-135006164D01*
X151657241Y-135006165D01*
X151653626Y-135006373D01*
X151584669Y-135018408D01*
X151315415Y-135065400D01*
X151315408Y-135065402D01*
X151311842Y-135066024D01*
X151308367Y-135067053D01*
X151308360Y-135067055D01*
X151230137Y-135090226D01*
X150979180Y-135164563D01*
X150975844Y-135165986D01*
X150975841Y-135165987D01*
X150663386Y-135299260D01*
X150663383Y-135299262D01*
X150660048Y-135300684D01*
X150656901Y-135302479D01*
X150656897Y-135302481D01*
X150580602Y-135345999D01*
X150358676Y-135472583D01*
X150079060Y-135677982D01*
X149824904Y-135914158D01*
X149599578Y-136177981D01*
X149406069Y-136465953D01*
X149246940Y-136774259D01*
X149124302Y-137098811D01*
X149039780Y-137435308D01*
X148994494Y-137779289D01*
X148989044Y-138126196D01*
X111006991Y-138126196D01*
X111010956Y-137873804D01*
X111001163Y-137775685D01*
X110976857Y-137532177D01*
X110976497Y-137528569D01*
X110902586Y-137189583D01*
X110790203Y-136861339D01*
X110640837Y-136548188D01*
X110456468Y-136254279D01*
X110454196Y-136251443D01*
X110454191Y-136251436D01*
X110241813Y-135986345D01*
X110239541Y-135983509D01*
X109992929Y-135739466D01*
X109719902Y-135525386D01*
X109424079Y-135344105D01*
X109420794Y-135342580D01*
X109420790Y-135342578D01*
X109112663Y-135199551D01*
X109109380Y-135198027D01*
X108939112Y-135141716D01*
X108783422Y-135090226D01*
X108783417Y-135090225D01*
X108779977Y-135089087D01*
X108776422Y-135088351D01*
X108776419Y-135088350D01*
X108443786Y-135019465D01*
X108443783Y-135019465D01*
X108440236Y-135018730D01*
X108285947Y-135004960D01*
X108137924Y-134991749D01*
X108137918Y-134991749D01*
X108135131Y-134991500D01*
X88911568Y-134991500D01*
X88909749Y-134991605D01*
X88909745Y-134991605D01*
X88657246Y-135006164D01*
X88657241Y-135006165D01*
X88653626Y-135006373D01*
X88584669Y-135018408D01*
X88315415Y-135065400D01*
X88315408Y-135065402D01*
X88311842Y-135066024D01*
X88308367Y-135067053D01*
X88308360Y-135067055D01*
X88230137Y-135090226D01*
X87979180Y-135164563D01*
X87975844Y-135165986D01*
X87975841Y-135165987D01*
X87663386Y-135299260D01*
X87663383Y-135299262D01*
X87660048Y-135300684D01*
X87656901Y-135302479D01*
X87656897Y-135302481D01*
X87580602Y-135345999D01*
X87358676Y-135472583D01*
X87079060Y-135677982D01*
X86824904Y-135914158D01*
X86599578Y-136177981D01*
X86406069Y-136465953D01*
X86246940Y-136774259D01*
X86124302Y-137098811D01*
X86039780Y-137435308D01*
X85994494Y-137779289D01*
X85989044Y-138126196D01*
X83508000Y-138126196D01*
X83508000Y-130500000D01*
X94786411Y-130500000D01*
X94806754Y-130888176D01*
X94867562Y-131272099D01*
X94968167Y-131647562D01*
X95107468Y-132010453D01*
X95283938Y-132356794D01*
X95495643Y-132682793D01*
X95740266Y-132984876D01*
X96015124Y-133259734D01*
X96317207Y-133504357D01*
X96643205Y-133716062D01*
X96646139Y-133717557D01*
X96646146Y-133717561D01*
X96986607Y-133891034D01*
X96989547Y-133892532D01*
X97352438Y-134031833D01*
X97727901Y-134132438D01*
X97931793Y-134164732D01*
X98108576Y-134192732D01*
X98108584Y-134192733D01*
X98111824Y-134193246D01*
X98500000Y-134213589D01*
X98888176Y-134193246D01*
X98891416Y-134192733D01*
X98891424Y-134192732D01*
X99068207Y-134164732D01*
X99272099Y-134132438D01*
X99647562Y-134031833D01*
X100010453Y-133892532D01*
X100013393Y-133891034D01*
X100353854Y-133717561D01*
X100353861Y-133717557D01*
X100356795Y-133716062D01*
X100682793Y-133504357D01*
X100984876Y-133259734D01*
X101259734Y-132984876D01*
X101504357Y-132682793D01*
X101716062Y-132356794D01*
X101892532Y-132010453D01*
X102031833Y-131647562D01*
X102132438Y-131272099D01*
X102193246Y-130888176D01*
X102213589Y-130500000D01*
X157786411Y-130500000D01*
X157806754Y-130888176D01*
X157867562Y-131272099D01*
X157968167Y-131647562D01*
X158107468Y-132010453D01*
X158283938Y-132356794D01*
X158495643Y-132682793D01*
X158740266Y-132984876D01*
X159015124Y-133259734D01*
X159317207Y-133504357D01*
X159643205Y-133716062D01*
X159646139Y-133717557D01*
X159646146Y-133717561D01*
X159986607Y-133891034D01*
X159989547Y-133892532D01*
X160352438Y-134031833D01*
X160727901Y-134132438D01*
X160931793Y-134164732D01*
X161108576Y-134192732D01*
X161108584Y-134192733D01*
X161111824Y-134193246D01*
X161500000Y-134213589D01*
X161888176Y-134193246D01*
X161891416Y-134192733D01*
X161891424Y-134192732D01*
X162068207Y-134164732D01*
X162272099Y-134132438D01*
X162647562Y-134031833D01*
X163010453Y-133892532D01*
X163013393Y-133891034D01*
X163353854Y-133717561D01*
X163353861Y-133717557D01*
X163356795Y-133716062D01*
X163682793Y-133504357D01*
X163984876Y-133259734D01*
X164259734Y-132984876D01*
X164504357Y-132682793D01*
X164716062Y-132356794D01*
X164892532Y-132010453D01*
X165031833Y-131647562D01*
X165132438Y-131272099D01*
X165193246Y-130888176D01*
X165213589Y-130500000D01*
X165193246Y-130111824D01*
X165132438Y-129727901D01*
X165031833Y-129352438D01*
X164892532Y-128989547D01*
X164716062Y-128643206D01*
X164504357Y-128317207D01*
X164259734Y-128015124D01*
X163984876Y-127740266D01*
X163682793Y-127495643D01*
X163356795Y-127283938D01*
X163353861Y-127282443D01*
X163353854Y-127282439D01*
X163013393Y-127108966D01*
X163010453Y-127107468D01*
X162647562Y-126968167D01*
X162272099Y-126867562D01*
X162068207Y-126835268D01*
X161891424Y-126807268D01*
X161891416Y-126807267D01*
X161888176Y-126806754D01*
X161500000Y-126786411D01*
X161111824Y-126806754D01*
X161108584Y-126807267D01*
X161108576Y-126807268D01*
X160931793Y-126835268D01*
X160727901Y-126867562D01*
X160352438Y-126968167D01*
X159989547Y-127107468D01*
X159986607Y-127108966D01*
X159646147Y-127282439D01*
X159646140Y-127282443D01*
X159643206Y-127283938D01*
X159317207Y-127495643D01*
X159015124Y-127740266D01*
X158740266Y-128015124D01*
X158495643Y-128317207D01*
X158283938Y-128643206D01*
X158107468Y-128989547D01*
X157968167Y-129352438D01*
X157867562Y-129727901D01*
X157806754Y-130111824D01*
X157786411Y-130500000D01*
X102213589Y-130500000D01*
X102193246Y-130111824D01*
X102132438Y-129727901D01*
X102031833Y-129352438D01*
X101892532Y-128989547D01*
X101716062Y-128643206D01*
X101504357Y-128317207D01*
X101259734Y-128015124D01*
X100984876Y-127740266D01*
X100682793Y-127495643D01*
X100356795Y-127283938D01*
X100353861Y-127282443D01*
X100353854Y-127282439D01*
X100013393Y-127108966D01*
X100010453Y-127107468D01*
X99647562Y-126968167D01*
X99272099Y-126867562D01*
X99068207Y-126835268D01*
X98891424Y-126807268D01*
X98891416Y-126807267D01*
X98888176Y-126806754D01*
X98500000Y-126786411D01*
X98111824Y-126806754D01*
X98108584Y-126807267D01*
X98108576Y-126807268D01*
X97931793Y-126835268D01*
X97727901Y-126867562D01*
X97352438Y-126968167D01*
X96989547Y-127107468D01*
X96986607Y-127108966D01*
X96646147Y-127282439D01*
X96646140Y-127282443D01*
X96643206Y-127283938D01*
X96317207Y-127495643D01*
X96015124Y-127740266D01*
X95740266Y-128015124D01*
X95495643Y-128317207D01*
X95283938Y-128643206D01*
X95107468Y-128989547D01*
X94968167Y-129352438D01*
X94867562Y-129727901D01*
X94806754Y-130111824D01*
X94786411Y-130500000D01*
X83508000Y-130500000D01*
X83508000Y-67500000D01*
X94786411Y-67500000D01*
X94806754Y-67888176D01*
X94867562Y-68272099D01*
X94968167Y-68647562D01*
X95107468Y-69010453D01*
X95283938Y-69356794D01*
X95495643Y-69682793D01*
X95740266Y-69984876D01*
X96015124Y-70259734D01*
X96317207Y-70504357D01*
X96643205Y-70716062D01*
X96646139Y-70717557D01*
X96646146Y-70717561D01*
X96986607Y-70891034D01*
X96989547Y-70892532D01*
X97352438Y-71031833D01*
X97727901Y-71132438D01*
X97931793Y-71164732D01*
X98108576Y-71192732D01*
X98108584Y-71192733D01*
X98111824Y-71193246D01*
X98500000Y-71213589D01*
X98888176Y-71193246D01*
X98891416Y-71192733D01*
X98891424Y-71192732D01*
X99068207Y-71164732D01*
X99272099Y-71132438D01*
X99647562Y-71031833D01*
X100010453Y-70892532D01*
X100013393Y-70891034D01*
X100353854Y-70717561D01*
X100353861Y-70717557D01*
X100356795Y-70716062D01*
X100682793Y-70504357D01*
X100984876Y-70259734D01*
X101259734Y-69984876D01*
X101504357Y-69682793D01*
X101716062Y-69356794D01*
X101892532Y-69010453D01*
X102031833Y-68647562D01*
X102132438Y-68272099D01*
X102193246Y-67888176D01*
X102213589Y-67500000D01*
X157786411Y-67500000D01*
X157806754Y-67888176D01*
X157867562Y-68272099D01*
X157968167Y-68647562D01*
X158107468Y-69010453D01*
X158283938Y-69356794D01*
X158495643Y-69682793D01*
X158740266Y-69984876D01*
X159015124Y-70259734D01*
X159317207Y-70504357D01*
X159643205Y-70716062D01*
X159646139Y-70717557D01*
X159646146Y-70717561D01*
X159986607Y-70891034D01*
X159989547Y-70892532D01*
X160352438Y-71031833D01*
X160727901Y-71132438D01*
X160931793Y-71164732D01*
X161108576Y-71192732D01*
X161108584Y-71192733D01*
X161111824Y-71193246D01*
X161500000Y-71213589D01*
X161888176Y-71193246D01*
X161891416Y-71192733D01*
X161891424Y-71192732D01*
X162068207Y-71164732D01*
X162272099Y-71132438D01*
X162647562Y-71031833D01*
X163010453Y-70892532D01*
X163013393Y-70891034D01*
X163353854Y-70717561D01*
X163353861Y-70717557D01*
X163356795Y-70716062D01*
X163682793Y-70504357D01*
X163984876Y-70259734D01*
X164259734Y-69984876D01*
X164504357Y-69682793D01*
X164716062Y-69356794D01*
X164892532Y-69010453D01*
X165031833Y-68647562D01*
X165132438Y-68272099D01*
X165193246Y-67888176D01*
X165213589Y-67500000D01*
X165193246Y-67111824D01*
X165132438Y-66727901D01*
X165031833Y-66352438D01*
X164892532Y-65989547D01*
X164716062Y-65643206D01*
X164504357Y-65317207D01*
X164259734Y-65015124D01*
X163984876Y-64740266D01*
X163682793Y-64495643D01*
X163356795Y-64283938D01*
X163353861Y-64282443D01*
X163353854Y-64282439D01*
X163013393Y-64108966D01*
X163010453Y-64107468D01*
X162647562Y-63968167D01*
X162272099Y-63867562D01*
X162068207Y-63835268D01*
X161891424Y-63807268D01*
X161891416Y-63807267D01*
X161888176Y-63806754D01*
X161500000Y-63786411D01*
X161111824Y-63806754D01*
X161108584Y-63807267D01*
X161108576Y-63807268D01*
X160931793Y-63835268D01*
X160727901Y-63867562D01*
X160352438Y-63968167D01*
X159989547Y-64107468D01*
X159986607Y-64108966D01*
X159646147Y-64282439D01*
X159646140Y-64282443D01*
X159643206Y-64283938D01*
X159317207Y-64495643D01*
X159015124Y-64740266D01*
X158740266Y-65015124D01*
X158495643Y-65317207D01*
X158283938Y-65643206D01*
X158107468Y-65989547D01*
X157968167Y-66352438D01*
X157867562Y-66727901D01*
X157806754Y-67111824D01*
X157786411Y-67500000D01*
X102213589Y-67500000D01*
X102193246Y-67111824D01*
X102132438Y-66727901D01*
X102031833Y-66352438D01*
X101892532Y-65989547D01*
X101716062Y-65643206D01*
X101504357Y-65317207D01*
X101259734Y-65015124D01*
X100984876Y-64740266D01*
X100682793Y-64495643D01*
X100356795Y-64283938D01*
X100353861Y-64282443D01*
X100353854Y-64282439D01*
X100013393Y-64108966D01*
X100010453Y-64107468D01*
X99647562Y-63968167D01*
X99272099Y-63867562D01*
X99068207Y-63835268D01*
X98891424Y-63807268D01*
X98891416Y-63807267D01*
X98888176Y-63806754D01*
X98500000Y-63786411D01*
X98111824Y-63806754D01*
X98108584Y-63807267D01*
X98108576Y-63807268D01*
X97931793Y-63835268D01*
X97727901Y-63867562D01*
X97352438Y-63968167D01*
X96989547Y-64107468D01*
X96986607Y-64108966D01*
X96646147Y-64282439D01*
X96646140Y-64282443D01*
X96643206Y-64283938D01*
X96317207Y-64495643D01*
X96015124Y-64740266D01*
X95740266Y-65015124D01*
X95495643Y-65317207D01*
X95283938Y-65643206D01*
X95107468Y-65989547D01*
X94968167Y-66352438D01*
X94867562Y-66727901D01*
X94806754Y-67111824D01*
X94786411Y-67500000D01*
X83508000Y-67500000D01*
X83508000Y-60126196D01*
X85989044Y-60126196D01*
X85989405Y-60129810D01*
X85989405Y-60129816D01*
X86010585Y-60342013D01*
X86023503Y-60471431D01*
X86097414Y-60810417D01*
X86098587Y-60813844D01*
X86098589Y-60813850D01*
X86208624Y-61135235D01*
X86209797Y-61138661D01*
X86359163Y-61451812D01*
X86543532Y-61745721D01*
X86545804Y-61748557D01*
X86545809Y-61748564D01*
X86617513Y-61838065D01*
X86760459Y-62016491D01*
X87007071Y-62260534D01*
X87280098Y-62474614D01*
X87575921Y-62655895D01*
X87579206Y-62657420D01*
X87579210Y-62657422D01*
X87745716Y-62734711D01*
X87890620Y-62801973D01*
X87994926Y-62836469D01*
X88216578Y-62909774D01*
X88216583Y-62909775D01*
X88220023Y-62910913D01*
X88223578Y-62911649D01*
X88223581Y-62911650D01*
X88556214Y-62980535D01*
X88556217Y-62980535D01*
X88559764Y-62981270D01*
X88698221Y-62993627D01*
X88862076Y-63008251D01*
X88862082Y-63008251D01*
X88864869Y-63008500D01*
X108088432Y-63008500D01*
X108090251Y-63008395D01*
X108090255Y-63008395D01*
X108342754Y-62993836D01*
X108342759Y-62993835D01*
X108346374Y-62993627D01*
X108421388Y-62980535D01*
X108684585Y-62934600D01*
X108684592Y-62934598D01*
X108688158Y-62933976D01*
X108691633Y-62932947D01*
X108691640Y-62932945D01*
X108824863Y-62893482D01*
X109020820Y-62835437D01*
X109024159Y-62834013D01*
X109336614Y-62700740D01*
X109336617Y-62700738D01*
X109339952Y-62699316D01*
X109343099Y-62697521D01*
X109343103Y-62697519D01*
X109638184Y-62529208D01*
X109641324Y-62527417D01*
X109920940Y-62322018D01*
X110175096Y-62085842D01*
X110400422Y-61822019D01*
X110593931Y-61534047D01*
X110753060Y-61225741D01*
X110875698Y-60901189D01*
X110960220Y-60564692D01*
X110988548Y-60349523D01*
X110999113Y-60269276D01*
X149256619Y-60269276D01*
X149259043Y-60313334D01*
X149259912Y-60320845D01*
X149316537Y-60640354D01*
X149318304Y-60647714D01*
X149412898Y-60958083D01*
X149415546Y-60965203D01*
X149546739Y-61261955D01*
X149550216Y-61268692D01*
X149716120Y-61547552D01*
X149720368Y-61553803D01*
X149918574Y-61810715D01*
X149923559Y-61816430D01*
X150151180Y-62047654D01*
X150156816Y-62052729D01*
X150410573Y-62254938D01*
X150416771Y-62259294D01*
X150692987Y-62429555D01*
X150699663Y-62433135D01*
X150994334Y-62568980D01*
X151001385Y-62571730D01*
X151310247Y-62671192D01*
X151317580Y-62673075D01*
X151636155Y-62734711D01*
X151643655Y-62735698D01*
X151899919Y-62753842D01*
X151904369Y-62754000D01*
X161227885Y-62754000D01*
X161243124Y-62749525D01*
X161244329Y-62748135D01*
X161246000Y-62740452D01*
X161246000Y-62735885D01*
X161754000Y-62735885D01*
X161758475Y-62751124D01*
X161759865Y-62752329D01*
X161767548Y-62754000D01*
X171081609Y-62754000D01*
X171085382Y-62753887D01*
X171327684Y-62739279D01*
X171335186Y-62738371D01*
X171654400Y-62680072D01*
X171661733Y-62678271D01*
X171971634Y-62582044D01*
X171978707Y-62579372D01*
X172274781Y-62446621D01*
X172281508Y-62443104D01*
X172559481Y-62275751D01*
X172565725Y-62271460D01*
X172821587Y-62071918D01*
X172827277Y-62066901D01*
X173057314Y-61838065D01*
X173062344Y-61832420D01*
X173263229Y-61577599D01*
X173267554Y-61571376D01*
X173436370Y-61294266D01*
X173439905Y-61287589D01*
X173574211Y-60992201D01*
X173576924Y-60985131D01*
X173674764Y-60675764D01*
X173676611Y-60668413D01*
X173736578Y-60349523D01*
X173737526Y-60342013D01*
X173742110Y-60272078D01*
X173738687Y-60256779D01*
X173727661Y-60254000D01*
X161772115Y-60254000D01*
X161756876Y-60258475D01*
X161755671Y-60259865D01*
X161754000Y-60267548D01*
X161754000Y-62735885D01*
X161246000Y-62735885D01*
X161246000Y-60272115D01*
X161241525Y-60256876D01*
X161240135Y-60255671D01*
X161232452Y-60254000D01*
X149273893Y-60254000D01*
X149258659Y-60258473D01*
X149256619Y-60269276D01*
X110999113Y-60269276D01*
X111005032Y-60224315D01*
X111005033Y-60224307D01*
X111005506Y-60220711D01*
X111010956Y-59873804D01*
X111001163Y-59775685D01*
X110996395Y-59727922D01*
X149257890Y-59727922D01*
X149261313Y-59743221D01*
X149272339Y-59746000D01*
X161227885Y-59746000D01*
X161243124Y-59741525D01*
X161244329Y-59740135D01*
X161246000Y-59732452D01*
X161246000Y-59727885D01*
X161754000Y-59727885D01*
X161758475Y-59743124D01*
X161759865Y-59744329D01*
X161767548Y-59746000D01*
X173726107Y-59746000D01*
X173741341Y-59741527D01*
X173743381Y-59730724D01*
X173740957Y-59686666D01*
X173740088Y-59679155D01*
X173683463Y-59359646D01*
X173681696Y-59352286D01*
X173587102Y-59041917D01*
X173584454Y-59034797D01*
X173453261Y-58738045D01*
X173449784Y-58731308D01*
X173283880Y-58452448D01*
X173279632Y-58446197D01*
X173081426Y-58189285D01*
X173076441Y-58183570D01*
X172848820Y-57952346D01*
X172843184Y-57947271D01*
X172589427Y-57745062D01*
X172583229Y-57740706D01*
X172307013Y-57570445D01*
X172300337Y-57566865D01*
X172005666Y-57431020D01*
X171998615Y-57428270D01*
X171689753Y-57328808D01*
X171682420Y-57326925D01*
X171363845Y-57265289D01*
X171356345Y-57264302D01*
X171100081Y-57246158D01*
X171095631Y-57246000D01*
X161772115Y-57246000D01*
X161756876Y-57250475D01*
X161755671Y-57251865D01*
X161754000Y-57259548D01*
X161754000Y-59727885D01*
X161246000Y-59727885D01*
X161246000Y-57264115D01*
X161241525Y-57248876D01*
X161240135Y-57247671D01*
X161232452Y-57246000D01*
X151918392Y-57246000D01*
X151914618Y-57246113D01*
X151672316Y-57260721D01*
X151664814Y-57261629D01*
X151345600Y-57319928D01*
X151338267Y-57321729D01*
X151028366Y-57417956D01*
X151021293Y-57420628D01*
X150725219Y-57553379D01*
X150718492Y-57556896D01*
X150440519Y-57724249D01*
X150434275Y-57728540D01*
X150178413Y-57928082D01*
X150172723Y-57933099D01*
X149942686Y-58161935D01*
X149937656Y-58167580D01*
X149736771Y-58422401D01*
X149732446Y-58428624D01*
X149563630Y-58705734D01*
X149560095Y-58712411D01*
X149425789Y-59007799D01*
X149423076Y-59014869D01*
X149325236Y-59324236D01*
X149323389Y-59331587D01*
X149263422Y-59650477D01*
X149262474Y-59657987D01*
X149257890Y-59727922D01*
X110996395Y-59727922D01*
X110976857Y-59532177D01*
X110976497Y-59528569D01*
X110902586Y-59189583D01*
X110840348Y-59007799D01*
X110791376Y-58864765D01*
X110790203Y-58861339D01*
X110640837Y-58548188D01*
X110456468Y-58254279D01*
X110454196Y-58251443D01*
X110454191Y-58251436D01*
X110241813Y-57986345D01*
X110239541Y-57983509D01*
X109992929Y-57739466D01*
X109719902Y-57525386D01*
X109424079Y-57344105D01*
X109420794Y-57342580D01*
X109420790Y-57342578D01*
X109112663Y-57199551D01*
X109109380Y-57198027D01*
X108939112Y-57141716D01*
X108783422Y-57090226D01*
X108783417Y-57090225D01*
X108779977Y-57089087D01*
X108776422Y-57088351D01*
X108776419Y-57088350D01*
X108443786Y-57019465D01*
X108443783Y-57019465D01*
X108440236Y-57018730D01*
X108285947Y-57004960D01*
X108137924Y-56991749D01*
X108137918Y-56991749D01*
X108135131Y-56991500D01*
X88911568Y-56991500D01*
X88909749Y-56991605D01*
X88909745Y-56991605D01*
X88657246Y-57006164D01*
X88657241Y-57006165D01*
X88653626Y-57006373D01*
X88584669Y-57018408D01*
X88315415Y-57065400D01*
X88315408Y-57065402D01*
X88311842Y-57066024D01*
X88308367Y-57067053D01*
X88308360Y-57067055D01*
X88230137Y-57090226D01*
X87979180Y-57164563D01*
X87975844Y-57165986D01*
X87975841Y-57165987D01*
X87663386Y-57299260D01*
X87663383Y-57299262D01*
X87660048Y-57300684D01*
X87656901Y-57302479D01*
X87656897Y-57302481D01*
X87449763Y-57420628D01*
X87358676Y-57472583D01*
X87079060Y-57677982D01*
X86824904Y-57914158D01*
X86599578Y-58177981D01*
X86406069Y-58465953D01*
X86246940Y-58774259D01*
X86124302Y-59098811D01*
X86039780Y-59435308D01*
X86039307Y-59438901D01*
X85998877Y-59746000D01*
X85994494Y-59779289D01*
X85989044Y-60126196D01*
X83508000Y-60126196D01*
X83508000Y-52634000D01*
X83528002Y-52565879D01*
X83581658Y-52519386D01*
X83634000Y-52508000D01*
X176366000Y-52508000D01*
X176434121Y-52528002D01*
G37*
%TD.AperFunction*%
%TD*%
M02*
