%TF.GenerationSoftware,KiCad,Pcbnew,(6.0.0)*%
%TF.CreationDate,2022-06-20T10:22:11+02:00*%
%TF.ProjectId,driver_pcb,64726976-6572-45f7-9063-622e6b696361,rev?*%
%TF.SameCoordinates,Original*%
%TF.FileFunction,Copper,L1,Top*%
%TF.FilePolarity,Positive*%
%FSLAX46Y46*%
G04 Gerber Fmt 4.6, Leading zero omitted, Abs format (unit mm)*
G04 Created by KiCad (PCBNEW (6.0.0)) date 2022-06-20 10:22:11*
%MOMM*%
%LPD*%
G01*
G04 APERTURE LIST*
%TA.AperFunction,SMDPad,CuDef*%
%ADD10C,2.000000*%
%TD*%
%TA.AperFunction,ViaPad*%
%ADD11C,0.800000*%
%TD*%
%TA.AperFunction,Conductor*%
%ADD12C,0.250000*%
%TD*%
G04 APERTURE END LIST*
D10*
%TO.P,TP3,1,1*%
%TO.N,Net-(R3-Pad1)*%
X91500000Y-78500000D03*
%TD*%
%TO.P,TP2,1,1*%
%TO.N,Net-(R2-Pad1)*%
X108500000Y-75500000D03*
%TD*%
%TO.P,TP5,1,1*%
%TO.N,Net-(TP5-Pad1)*%
X105500000Y-78500000D03*
%TD*%
%TO.P,TP1,1,1*%
%TO.N,Net-(R1-Pad1)*%
X91500000Y-71500000D03*
%TD*%
%TO.P,TP4,1,1*%
%TO.N,Earth*%
X108500000Y-72500000D03*
%TD*%
%TO.P,TP6,1,1*%
%TO.N,Net-(TP6-Pad1)*%
X102500000Y-78500000D03*
%TD*%
%TO.P,TP7,1,1*%
%TO.N,Net-(TP7-Pad1)*%
X108500000Y-78500000D03*
%TD*%
D11*
%TO.N,Net-(JP1-Pad1)*%
X101250000Y-74250000D03*
X102750000Y-75250000D03*
%TO.N,Net-(R2-Pad1)*%
X109500000Y-74000000D03*
%TO.N,Net-(R2-Pad2)*%
X100500000Y-71000000D03*
X97500000Y-71500000D03*
%TO.N,Net-(R1-Pad1)*%
X93750000Y-71000000D03*
%TO.N,Net-(R3-Pad1)*%
X92500000Y-77000000D03*
%TO.N,Net-(TP5-Pad1)*%
X104000000Y-79500000D03*
%TO.N,Net-(TP6-Pad1)*%
X101000000Y-79500000D03*
%TO.N,Net-(TP7-Pad1)*%
X106005807Y-76982578D03*
%TO.N,Earth*%
X107000000Y-74000000D03*
X98000000Y-79000000D03*
%TD*%
D12*
%TO.N,Net-(JP1-Pad1)*%
X102250000Y-75250000D02*
X101250000Y-74250000D01*
X102750000Y-75250000D02*
X102250000Y-75250000D01*
%TO.N,Net-(R2-Pad1)*%
X109500000Y-74500000D02*
X108500000Y-75500000D01*
X109500000Y-74000000D02*
X109500000Y-74500000D01*
%TO.N,Net-(R2-Pad2)*%
X97500000Y-71500000D02*
X98000000Y-71000000D01*
X98000000Y-71000000D02*
X100500000Y-71000000D01*
%TO.N,Net-(R1-Pad1)*%
X92000000Y-71000000D02*
X91500000Y-71500000D01*
X93750000Y-71000000D02*
X92000000Y-71000000D01*
%TO.N,Net-(R3-Pad1)*%
X92500000Y-77000000D02*
X91500000Y-78000000D01*
X91500000Y-78000000D02*
X91500000Y-78500000D01*
%TO.N,Net-(TP5-Pad1)*%
X105000000Y-78500000D02*
X104000000Y-79500000D01*
X105500000Y-78500000D02*
X105000000Y-78500000D01*
%TO.N,Net-(TP6-Pad1)*%
X102000000Y-78500000D02*
X101000000Y-79500000D01*
X102500000Y-78500000D02*
X102000000Y-78500000D01*
%TO.N,Net-(TP7-Pad1)*%
X107523229Y-78500000D02*
X108500000Y-78500000D01*
X106005807Y-76982578D02*
X107523229Y-78500000D01*
%TO.N,Earth*%
X107000000Y-74000000D02*
X108500000Y-72500000D01*
%TD*%
%TA.AperFunction,Conductor*%
%TO.N,Earth*%
G36*
X100091493Y-70274002D02*
G01*
X100137986Y-70327658D01*
X100148090Y-70397932D01*
X100118596Y-70462512D01*
X100106202Y-70474949D01*
X100010039Y-70558838D01*
X100005672Y-70565051D01*
X100005667Y-70565057D01*
X100004336Y-70566951D01*
X100003013Y-70568005D01*
X100000589Y-70570697D01*
X100000140Y-70570293D01*
X99948802Y-70611183D01*
X99901250Y-70620500D01*
X98053920Y-70620500D01*
X98029972Y-70617951D01*
X98028307Y-70617872D01*
X98018124Y-70615680D01*
X98007783Y-70616904D01*
X97984777Y-70619627D01*
X97978846Y-70619977D01*
X97978854Y-70620072D01*
X97973676Y-70620500D01*
X97968476Y-70620500D01*
X97963347Y-70621354D01*
X97963344Y-70621354D01*
X97949435Y-70623669D01*
X97943557Y-70624506D01*
X97902999Y-70629306D01*
X97902998Y-70629306D01*
X97892659Y-70630530D01*
X97884407Y-70634493D01*
X97875374Y-70635996D01*
X97866205Y-70640943D01*
X97866203Y-70640944D01*
X97830268Y-70660334D01*
X97824975Y-70663031D01*
X97785913Y-70681787D01*
X97785907Y-70681791D01*
X97778768Y-70685219D01*
X97774492Y-70688813D01*
X97772553Y-70690752D01*
X97770638Y-70692508D01*
X97770552Y-70692555D01*
X97770439Y-70692433D01*
X97769904Y-70692905D01*
X97764186Y-70695990D01*
X97757118Y-70703636D01*
X97757117Y-70703637D01*
X97727595Y-70735574D01*
X97724165Y-70739140D01*
X97654410Y-70808895D01*
X97592098Y-70842921D01*
X97564657Y-70845798D01*
X97424221Y-70845062D01*
X97416841Y-70846834D01*
X97416839Y-70846834D01*
X97277563Y-70880271D01*
X97277560Y-70880272D01*
X97270184Y-70882043D01*
X97129414Y-70954700D01*
X97010039Y-71058838D01*
X96918950Y-71188444D01*
X96916190Y-71195524D01*
X96866178Y-71323798D01*
X96861406Y-71336037D01*
X96860414Y-71343570D01*
X96860414Y-71343571D01*
X96846894Y-71446269D01*
X96840729Y-71493096D01*
X96848228Y-71561020D01*
X96856829Y-71638920D01*
X96858113Y-71650553D01*
X96860723Y-71657684D01*
X96860723Y-71657686D01*
X96884985Y-71723984D01*
X96912553Y-71799319D01*
X96916789Y-71805622D01*
X96916789Y-71805623D01*
X96924997Y-71817837D01*
X97000908Y-71930805D01*
X97006527Y-71935918D01*
X97006528Y-71935919D01*
X97017903Y-71946269D01*
X97118076Y-72037419D01*
X97257293Y-72113008D01*
X97410522Y-72153207D01*
X97494477Y-72154526D01*
X97561319Y-72155576D01*
X97561322Y-72155576D01*
X97568916Y-72155695D01*
X97723332Y-72120329D01*
X97793742Y-72084917D01*
X97858072Y-72052563D01*
X97858075Y-72052561D01*
X97864855Y-72049151D01*
X97870626Y-72044222D01*
X97870629Y-72044220D01*
X97979536Y-71951204D01*
X97979536Y-71951203D01*
X97985314Y-71946269D01*
X98077755Y-71817624D01*
X98136842Y-71670641D01*
X98152443Y-71561020D01*
X98158581Y-71517891D01*
X98158581Y-71517888D01*
X98159162Y-71513807D01*
X98159263Y-71504179D01*
X98179978Y-71436271D01*
X98234119Y-71390344D01*
X98285256Y-71379500D01*
X99900141Y-71379500D01*
X99968262Y-71399502D01*
X99995522Y-71423169D01*
X99996672Y-71424501D01*
X100000908Y-71430805D01*
X100006525Y-71435916D01*
X100092127Y-71513807D01*
X100118076Y-71537419D01*
X100257293Y-71613008D01*
X100410522Y-71653207D01*
X100494477Y-71654526D01*
X100561319Y-71655576D01*
X100561322Y-71655576D01*
X100568916Y-71655695D01*
X100723332Y-71620329D01*
X100793742Y-71584917D01*
X100858072Y-71552563D01*
X100858075Y-71552561D01*
X100864855Y-71549151D01*
X100870626Y-71544222D01*
X100870629Y-71544220D01*
X100979536Y-71451204D01*
X100979536Y-71451203D01*
X100985314Y-71446269D01*
X101077755Y-71317624D01*
X101097748Y-71267890D01*
X107632093Y-71267890D01*
X107635876Y-71276666D01*
X108487188Y-72127978D01*
X108501132Y-72135592D01*
X108502965Y-72135461D01*
X108509580Y-72131210D01*
X109361080Y-71279710D01*
X109367840Y-71267330D01*
X109362113Y-71259680D01*
X109190958Y-71154795D01*
X109182163Y-71150313D01*
X108972012Y-71063266D01*
X108962627Y-71060217D01*
X108741446Y-71007115D01*
X108731699Y-71005572D01*
X108504930Y-70987725D01*
X108495070Y-70987725D01*
X108268301Y-71005572D01*
X108258554Y-71007115D01*
X108037373Y-71060217D01*
X108027988Y-71063266D01*
X107817837Y-71150313D01*
X107809042Y-71154795D01*
X107641555Y-71257432D01*
X107632093Y-71267890D01*
X101097748Y-71267890D01*
X101136842Y-71170641D01*
X101152557Y-71060217D01*
X101158581Y-71017891D01*
X101158581Y-71017888D01*
X101159162Y-71013807D01*
X101159232Y-71007115D01*
X101159264Y-71004134D01*
X101159264Y-71004128D01*
X101159307Y-71000000D01*
X101140276Y-70842733D01*
X101084280Y-70694546D01*
X101060767Y-70660334D01*
X100998855Y-70570251D01*
X100998854Y-70570249D01*
X100994553Y-70563992D01*
X100893634Y-70474077D01*
X100856079Y-70413826D01*
X100857058Y-70342837D01*
X100896263Y-70283646D01*
X100961244Y-70255047D01*
X100977453Y-70254000D01*
X109620000Y-70254000D01*
X109688121Y-70274002D01*
X109734614Y-70327658D01*
X109746000Y-70380000D01*
X109746000Y-71561020D01*
X109725998Y-71629141D01*
X109709095Y-71650115D01*
X107638920Y-73720290D01*
X107632160Y-73732670D01*
X107637887Y-73740320D01*
X107809042Y-73845205D01*
X107817837Y-73849687D01*
X108027988Y-73936734D01*
X108037373Y-73939783D01*
X108258554Y-73992885D01*
X108268301Y-73994428D01*
X108360495Y-74001684D01*
X108426836Y-74026969D01*
X108468976Y-74084107D01*
X108473535Y-74154957D01*
X108439066Y-74217025D01*
X108376513Y-74250605D01*
X108361590Y-74252817D01*
X108281326Y-74259839D01*
X108069297Y-74316653D01*
X108016791Y-74341137D01*
X107875341Y-74407095D01*
X107875336Y-74407098D01*
X107870354Y-74409421D01*
X107865847Y-74412577D01*
X107865845Y-74412578D01*
X107695054Y-74532167D01*
X107695051Y-74532169D01*
X107690543Y-74535326D01*
X107535326Y-74690543D01*
X107532169Y-74695051D01*
X107532167Y-74695054D01*
X107413216Y-74864934D01*
X107409421Y-74870354D01*
X107407098Y-74875336D01*
X107407095Y-74875341D01*
X107377743Y-74938288D01*
X107316653Y-75069297D01*
X107259839Y-75281326D01*
X107240708Y-75500000D01*
X107259839Y-75718674D01*
X107316653Y-75930703D01*
X107318978Y-75935688D01*
X107407095Y-76124659D01*
X107407098Y-76124664D01*
X107409421Y-76129646D01*
X107412577Y-76134153D01*
X107412578Y-76134155D01*
X107469485Y-76215426D01*
X107535326Y-76309457D01*
X107690543Y-76464674D01*
X107695051Y-76467831D01*
X107695054Y-76467833D01*
X107865845Y-76587422D01*
X107870354Y-76590579D01*
X107875336Y-76592902D01*
X107875341Y-76592905D01*
X107976116Y-76639896D01*
X108069297Y-76683347D01*
X108281326Y-76740161D01*
X108500000Y-76759292D01*
X108718674Y-76740161D01*
X108930703Y-76683347D01*
X109023884Y-76639896D01*
X109124659Y-76592905D01*
X109124664Y-76592902D01*
X109129646Y-76590579D01*
X109134155Y-76587422D01*
X109304946Y-76467833D01*
X109304949Y-76467831D01*
X109309457Y-76464674D01*
X109464674Y-76309457D01*
X109516787Y-76235032D01*
X109572244Y-76190704D01*
X109642863Y-76183395D01*
X109706224Y-76215426D01*
X109742209Y-76276627D01*
X109746000Y-76307303D01*
X109746000Y-77692697D01*
X109725998Y-77760818D01*
X109672342Y-77807311D01*
X109602068Y-77817415D01*
X109537488Y-77787921D01*
X109516787Y-77764968D01*
X109467833Y-77695054D01*
X109467831Y-77695051D01*
X109464674Y-77690543D01*
X109309457Y-77535326D01*
X109304949Y-77532169D01*
X109304946Y-77532167D01*
X109134155Y-77412578D01*
X109134153Y-77412577D01*
X109129646Y-77409421D01*
X109124664Y-77407098D01*
X109124659Y-77407095D01*
X109023884Y-77360104D01*
X108930703Y-77316653D01*
X108718674Y-77259839D01*
X108500000Y-77240708D01*
X108281326Y-77259839D01*
X108069297Y-77316653D01*
X107976116Y-77360104D01*
X107875341Y-77407095D01*
X107875336Y-77407098D01*
X107870354Y-77409421D01*
X107865847Y-77412577D01*
X107865845Y-77412578D01*
X107695054Y-77532167D01*
X107695051Y-77532169D01*
X107690543Y-77535326D01*
X107535326Y-77690543D01*
X107504138Y-77735085D01*
X107448684Y-77779411D01*
X107378065Y-77786720D01*
X107311832Y-77751908D01*
X106695950Y-77136027D01*
X106661925Y-77073714D01*
X106660302Y-77029177D01*
X106664388Y-77000468D01*
X106664388Y-77000467D01*
X106664969Y-76996385D01*
X106665114Y-76982578D01*
X106646083Y-76825311D01*
X106590087Y-76677124D01*
X106532205Y-76592905D01*
X106504662Y-76552829D01*
X106504661Y-76552827D01*
X106500360Y-76546570D01*
X106382082Y-76441189D01*
X106374696Y-76437278D01*
X106336372Y-76416987D01*
X106242081Y-76367062D01*
X106088440Y-76328470D01*
X106080841Y-76328430D01*
X106080840Y-76328430D01*
X106014988Y-76328085D01*
X105930028Y-76327640D01*
X105922648Y-76329412D01*
X105922646Y-76329412D01*
X105783370Y-76362849D01*
X105783367Y-76362850D01*
X105775991Y-76364621D01*
X105635221Y-76437278D01*
X105515846Y-76541416D01*
X105424757Y-76671022D01*
X105367213Y-76818615D01*
X105366221Y-76826148D01*
X105366221Y-76826149D01*
X105363928Y-76843571D01*
X105346536Y-76975674D01*
X105362412Y-77119470D01*
X105363262Y-77127170D01*
X105350856Y-77197074D01*
X105302627Y-77249174D01*
X105270637Y-77262703D01*
X105069297Y-77316653D01*
X104976116Y-77360104D01*
X104875341Y-77407095D01*
X104875336Y-77407098D01*
X104870354Y-77409421D01*
X104865847Y-77412577D01*
X104865845Y-77412578D01*
X104695054Y-77532167D01*
X104695051Y-77532169D01*
X104690543Y-77535326D01*
X104535326Y-77690543D01*
X104532169Y-77695051D01*
X104532167Y-77695054D01*
X104412578Y-77865845D01*
X104412577Y-77865847D01*
X104409421Y-77870354D01*
X104407098Y-77875336D01*
X104407095Y-77875341D01*
X104360104Y-77976116D01*
X104316653Y-78069297D01*
X104259839Y-78281326D01*
X104240708Y-78500000D01*
X104241187Y-78505475D01*
X104241187Y-78505476D01*
X104253495Y-78646161D01*
X104239506Y-78715765D01*
X104217069Y-78746237D01*
X104154411Y-78808895D01*
X104092099Y-78842921D01*
X104064658Y-78845798D01*
X103924221Y-78845062D01*
X103916838Y-78846835D01*
X103916834Y-78846835D01*
X103895108Y-78852051D01*
X103824201Y-78848505D01*
X103766466Y-78807186D01*
X103740236Y-78741213D01*
X103740172Y-78718552D01*
X103758813Y-78505475D01*
X103759292Y-78500000D01*
X103740161Y-78281326D01*
X103683347Y-78069297D01*
X103639896Y-77976116D01*
X103592905Y-77875341D01*
X103592902Y-77875336D01*
X103590579Y-77870354D01*
X103587423Y-77865847D01*
X103587422Y-77865845D01*
X103467833Y-77695054D01*
X103467831Y-77695051D01*
X103464674Y-77690543D01*
X103309457Y-77535326D01*
X103304949Y-77532169D01*
X103304946Y-77532167D01*
X103134155Y-77412578D01*
X103134153Y-77412577D01*
X103129646Y-77409421D01*
X103124664Y-77407098D01*
X103124659Y-77407095D01*
X103023884Y-77360104D01*
X102930703Y-77316653D01*
X102718674Y-77259839D01*
X102500000Y-77240708D01*
X102281326Y-77259839D01*
X102069297Y-77316653D01*
X101976116Y-77360104D01*
X101875341Y-77407095D01*
X101875336Y-77407098D01*
X101870354Y-77409421D01*
X101865847Y-77412577D01*
X101865845Y-77412578D01*
X101695054Y-77532167D01*
X101695051Y-77532169D01*
X101690543Y-77535326D01*
X101535326Y-77690543D01*
X101532169Y-77695051D01*
X101532167Y-77695054D01*
X101412578Y-77865845D01*
X101412577Y-77865847D01*
X101409421Y-77870354D01*
X101407098Y-77875336D01*
X101407095Y-77875341D01*
X101360104Y-77976116D01*
X101316653Y-78069297D01*
X101259839Y-78281326D01*
X101240708Y-78500000D01*
X101241187Y-78505475D01*
X101241187Y-78505476D01*
X101253495Y-78646161D01*
X101239506Y-78715765D01*
X101217069Y-78746237D01*
X101154411Y-78808895D01*
X101092099Y-78842921D01*
X101064658Y-78845798D01*
X100924221Y-78845062D01*
X100916841Y-78846834D01*
X100916839Y-78846834D01*
X100777563Y-78880271D01*
X100777560Y-78880272D01*
X100770184Y-78882043D01*
X100629414Y-78954700D01*
X100510039Y-79058838D01*
X100418950Y-79188444D01*
X100416190Y-79195524D01*
X100370250Y-79313354D01*
X100361406Y-79336037D01*
X100360414Y-79343570D01*
X100360414Y-79343571D01*
X100344055Y-79467833D01*
X100340729Y-79493096D01*
X100341563Y-79500646D01*
X100353213Y-79606173D01*
X100340807Y-79676078D01*
X100292577Y-79728178D01*
X100227974Y-79746000D01*
X92307303Y-79746000D01*
X92239182Y-79725998D01*
X92192689Y-79672342D01*
X92182585Y-79602068D01*
X92212079Y-79537488D01*
X92235032Y-79516787D01*
X92304946Y-79467833D01*
X92304949Y-79467831D01*
X92309457Y-79464674D01*
X92464674Y-79309457D01*
X92530516Y-79215426D01*
X92587422Y-79134155D01*
X92587423Y-79134153D01*
X92590579Y-79129646D01*
X92592902Y-79124664D01*
X92592905Y-79124659D01*
X92639896Y-79023884D01*
X92683347Y-78930703D01*
X92740161Y-78718674D01*
X92759292Y-78500000D01*
X92740161Y-78281326D01*
X92683347Y-78069297D01*
X92639896Y-77976116D01*
X92592905Y-77875341D01*
X92592902Y-77875336D01*
X92590579Y-77870354D01*
X92565400Y-77834394D01*
X92542712Y-77767121D01*
X92559997Y-77698261D01*
X92611766Y-77649676D01*
X92640483Y-77639304D01*
X92645675Y-77638115D01*
X92723332Y-77620329D01*
X92793742Y-77584917D01*
X92858072Y-77552563D01*
X92858075Y-77552561D01*
X92864855Y-77549151D01*
X92870626Y-77544222D01*
X92870629Y-77544220D01*
X92979536Y-77451204D01*
X92979536Y-77451203D01*
X92985314Y-77446269D01*
X93077755Y-77317624D01*
X93136842Y-77170641D01*
X93159162Y-77013807D01*
X93159307Y-77000000D01*
X93140276Y-76842733D01*
X93084280Y-76694546D01*
X93063840Y-76664806D01*
X92998855Y-76570251D01*
X92998854Y-76570249D01*
X92994553Y-76563992D01*
X92876275Y-76458611D01*
X92868889Y-76454700D01*
X92742988Y-76388039D01*
X92742989Y-76388039D01*
X92736274Y-76384484D01*
X92582633Y-76345892D01*
X92575034Y-76345852D01*
X92575033Y-76345852D01*
X92509181Y-76345507D01*
X92424221Y-76345062D01*
X92416841Y-76346834D01*
X92416839Y-76346834D01*
X92277563Y-76380271D01*
X92277560Y-76380272D01*
X92270184Y-76382043D01*
X92129414Y-76454700D01*
X92010039Y-76558838D01*
X91918950Y-76688444D01*
X91898600Y-76740640D01*
X91868199Y-76818615D01*
X91861406Y-76836037D01*
X91860414Y-76843570D01*
X91860414Y-76843571D01*
X91842029Y-76983224D01*
X91840729Y-76993096D01*
X91843544Y-77018591D01*
X91846963Y-77049566D01*
X91834557Y-77119470D01*
X91810819Y-77152487D01*
X91746237Y-77217069D01*
X91683925Y-77251095D01*
X91646161Y-77253495D01*
X91505476Y-77241187D01*
X91505475Y-77241187D01*
X91500000Y-77240708D01*
X91281326Y-77259839D01*
X91069297Y-77316653D01*
X90976116Y-77360104D01*
X90875341Y-77407095D01*
X90875336Y-77407098D01*
X90870354Y-77409421D01*
X90865847Y-77412577D01*
X90865845Y-77412578D01*
X90695054Y-77532167D01*
X90695051Y-77532169D01*
X90690543Y-77535326D01*
X90535326Y-77690543D01*
X90532169Y-77695051D01*
X90532167Y-77695054D01*
X90483213Y-77764968D01*
X90427756Y-77809296D01*
X90357137Y-77816605D01*
X90293776Y-77784574D01*
X90257791Y-77723373D01*
X90254000Y-77692697D01*
X90254000Y-74243096D01*
X100590729Y-74243096D01*
X100592577Y-74259830D01*
X100603518Y-74358930D01*
X100608113Y-74400553D01*
X100662553Y-74549319D01*
X100666789Y-74555622D01*
X100666789Y-74555623D01*
X100719782Y-74634484D01*
X100750908Y-74680805D01*
X100756527Y-74685918D01*
X100756528Y-74685919D01*
X100847840Y-74769006D01*
X100868076Y-74787419D01*
X101007293Y-74863008D01*
X101160522Y-74903207D01*
X101257138Y-74904725D01*
X101318772Y-74905693D01*
X101386570Y-74926762D01*
X101405888Y-74942582D01*
X101943522Y-75480216D01*
X101958664Y-75498964D01*
X101959779Y-75500189D01*
X101965429Y-75508940D01*
X101973607Y-75515387D01*
X101973609Y-75515389D01*
X101991800Y-75529729D01*
X101996242Y-75533676D01*
X101996304Y-75533603D01*
X102000267Y-75536961D01*
X102003944Y-75540638D01*
X102008173Y-75543660D01*
X102019646Y-75551859D01*
X102024392Y-75555422D01*
X102030924Y-75560571D01*
X102064647Y-75587156D01*
X102073283Y-75590189D01*
X102080735Y-75595514D01*
X102127400Y-75609470D01*
X102129855Y-75610204D01*
X102135502Y-75612039D01*
X102183850Y-75629018D01*
X102182912Y-75631690D01*
X102233428Y-75659120D01*
X102241508Y-75668919D01*
X102241706Y-75668748D01*
X102246672Y-75674501D01*
X102250908Y-75680805D01*
X102256527Y-75685918D01*
X102256528Y-75685919D01*
X102292526Y-75718674D01*
X102368076Y-75787419D01*
X102507293Y-75863008D01*
X102660522Y-75903207D01*
X102744477Y-75904526D01*
X102811319Y-75905576D01*
X102811322Y-75905576D01*
X102818916Y-75905695D01*
X102973332Y-75870329D01*
X103043742Y-75834917D01*
X103108072Y-75802563D01*
X103108075Y-75802561D01*
X103114855Y-75799151D01*
X103120626Y-75794222D01*
X103120629Y-75794220D01*
X103229536Y-75701204D01*
X103229536Y-75701203D01*
X103235314Y-75696269D01*
X103327755Y-75567624D01*
X103386842Y-75420641D01*
X103406669Y-75281326D01*
X103408581Y-75267891D01*
X103408581Y-75267888D01*
X103409162Y-75263807D01*
X103409307Y-75250000D01*
X103390276Y-75092733D01*
X103334280Y-74944546D01*
X103286717Y-74875341D01*
X103248855Y-74820251D01*
X103248854Y-74820249D01*
X103244553Y-74813992D01*
X103126275Y-74708611D01*
X103118889Y-74704700D01*
X102992988Y-74638039D01*
X102992989Y-74638039D01*
X102986274Y-74634484D01*
X102832633Y-74595892D01*
X102825034Y-74595852D01*
X102825033Y-74595852D01*
X102759181Y-74595507D01*
X102674221Y-74595062D01*
X102666841Y-74596834D01*
X102666839Y-74596834D01*
X102527563Y-74630271D01*
X102527560Y-74630272D01*
X102520184Y-74632043D01*
X102513439Y-74635524D01*
X102513440Y-74635524D01*
X102406843Y-74690543D01*
X102379414Y-74704700D01*
X102379159Y-74704206D01*
X102316521Y-74724359D01*
X102247909Y-74706114D01*
X102224190Y-74687496D01*
X101940143Y-74403449D01*
X101906117Y-74341137D01*
X101904495Y-74296601D01*
X101908581Y-74267892D01*
X101908581Y-74267886D01*
X101909162Y-74263807D01*
X101909307Y-74250000D01*
X101890276Y-74092733D01*
X101834280Y-73944546D01*
X101825814Y-73932228D01*
X101748855Y-73820251D01*
X101748854Y-73820249D01*
X101744553Y-73813992D01*
X101626275Y-73708611D01*
X101618889Y-73704700D01*
X101492988Y-73638039D01*
X101492989Y-73638039D01*
X101486274Y-73634484D01*
X101332633Y-73595892D01*
X101325034Y-73595852D01*
X101325033Y-73595852D01*
X101259181Y-73595507D01*
X101174221Y-73595062D01*
X101166841Y-73596834D01*
X101166839Y-73596834D01*
X101027563Y-73630271D01*
X101027560Y-73630272D01*
X101020184Y-73632043D01*
X100879414Y-73704700D01*
X100760039Y-73808838D01*
X100668950Y-73938444D01*
X100611406Y-74086037D01*
X100610414Y-74093570D01*
X100610414Y-74093571D01*
X100600425Y-74169450D01*
X100590729Y-74243096D01*
X90254000Y-74243096D01*
X90254000Y-72307303D01*
X90274002Y-72239182D01*
X90327658Y-72192689D01*
X90397932Y-72182585D01*
X90462512Y-72212079D01*
X90483213Y-72235032D01*
X90535326Y-72309457D01*
X90690543Y-72464674D01*
X90695051Y-72467831D01*
X90695054Y-72467833D01*
X90759291Y-72512812D01*
X90870354Y-72590579D01*
X90875336Y-72592902D01*
X90875341Y-72592905D01*
X90976116Y-72639896D01*
X91069297Y-72683347D01*
X91281326Y-72740161D01*
X91500000Y-72759292D01*
X91718674Y-72740161D01*
X91930703Y-72683347D01*
X92023884Y-72639896D01*
X92124659Y-72592905D01*
X92124664Y-72592902D01*
X92129646Y-72590579D01*
X92240709Y-72512812D01*
X92251966Y-72504930D01*
X106987725Y-72504930D01*
X107005572Y-72731699D01*
X107007115Y-72741446D01*
X107060217Y-72962627D01*
X107063266Y-72972012D01*
X107150313Y-73182163D01*
X107154795Y-73190958D01*
X107257432Y-73358445D01*
X107267890Y-73367907D01*
X107276666Y-73364124D01*
X108127978Y-72512812D01*
X108135592Y-72498868D01*
X108135461Y-72497035D01*
X108131210Y-72490420D01*
X107279710Y-71638920D01*
X107267330Y-71632160D01*
X107259680Y-71637887D01*
X107154795Y-71809042D01*
X107150313Y-71817837D01*
X107063266Y-72027988D01*
X107060217Y-72037373D01*
X107007115Y-72258554D01*
X107005572Y-72268301D01*
X106987725Y-72495070D01*
X106987725Y-72504930D01*
X92251966Y-72504930D01*
X92304946Y-72467833D01*
X92304949Y-72467831D01*
X92309457Y-72464674D01*
X92464674Y-72309457D01*
X92572340Y-72155695D01*
X92587422Y-72134155D01*
X92587423Y-72134153D01*
X92590579Y-72129646D01*
X92592902Y-72124664D01*
X92592905Y-72124659D01*
X92673787Y-71951204D01*
X92683347Y-71930703D01*
X92740161Y-71718674D01*
X92759292Y-71500000D01*
X92760399Y-71500097D01*
X92778815Y-71437379D01*
X92832471Y-71390886D01*
X92884813Y-71379500D01*
X93150141Y-71379500D01*
X93218262Y-71399502D01*
X93245522Y-71423169D01*
X93246672Y-71424501D01*
X93250908Y-71430805D01*
X93256525Y-71435916D01*
X93342127Y-71513807D01*
X93368076Y-71537419D01*
X93507293Y-71613008D01*
X93660522Y-71653207D01*
X93744477Y-71654526D01*
X93811319Y-71655576D01*
X93811322Y-71655576D01*
X93818916Y-71655695D01*
X93973332Y-71620329D01*
X94043742Y-71584917D01*
X94108072Y-71552563D01*
X94108075Y-71552561D01*
X94114855Y-71549151D01*
X94120626Y-71544222D01*
X94120629Y-71544220D01*
X94229536Y-71451204D01*
X94229536Y-71451203D01*
X94235314Y-71446269D01*
X94327755Y-71317624D01*
X94386842Y-71170641D01*
X94402557Y-71060217D01*
X94408581Y-71017891D01*
X94408581Y-71017888D01*
X94409162Y-71013807D01*
X94409232Y-71007115D01*
X94409264Y-71004134D01*
X94409264Y-71004128D01*
X94409307Y-71000000D01*
X94390276Y-70842733D01*
X94334280Y-70694546D01*
X94310767Y-70660334D01*
X94248855Y-70570251D01*
X94248854Y-70570249D01*
X94244553Y-70563992D01*
X94143634Y-70474077D01*
X94106079Y-70413826D01*
X94107058Y-70342837D01*
X94146263Y-70283646D01*
X94211244Y-70255047D01*
X94227453Y-70254000D01*
X100023372Y-70254000D01*
X100091493Y-70274002D01*
G37*
%TD.AperFunction*%
%TD*%
M02*
