%TF.GenerationSoftware,KiCad,Pcbnew,(6.0.0)*%
%TF.CreationDate,2022-06-16T21:21:37+02:00*%
%TF.ProjectId,driver_pcb,64726976-6572-45f7-9063-622e6b696361,rev?*%
%TF.SameCoordinates,Original*%
%TF.FileFunction,Copper,L1,Top*%
%TF.FilePolarity,Positive*%
%FSLAX46Y46*%
G04 Gerber Fmt 4.6, Leading zero omitted, Abs format (unit mm)*
G04 Created by KiCad (PCBNEW (6.0.0)) date 2022-06-16 21:21:37*
%MOMM*%
%LPD*%
G01*
G04 APERTURE LIST*
%TA.AperFunction,SMDPad,CuDef*%
%ADD10C,2.000000*%
%TD*%
%TA.AperFunction,ViaPad*%
%ADD11C,0.800000*%
%TD*%
%TA.AperFunction,Conductor*%
%ADD12C,0.250000*%
%TD*%
G04 APERTURE END LIST*
D10*
%TO.P,TP7,1,1*%
%TO.N,Net-(TP7-Pad1)*%
X108500000Y-78500000D03*
%TD*%
%TO.P,TP6,1,1*%
%TO.N,Net-(TP6-Pad1)*%
X102500000Y-78500000D03*
%TD*%
%TO.P,TP5,1,1*%
%TO.N,Net-(TP5-Pad1)*%
X105500000Y-78500000D03*
%TD*%
%TO.P,TP4,1,1*%
%TO.N,Earth*%
X108500000Y-72500000D03*
%TD*%
%TO.P,TP3,1,1*%
%TO.N,Net-(TP3-Pad1)*%
X91500000Y-78500000D03*
%TD*%
%TO.P,TP2,1,1*%
%TO.N,Net-(TP2-Pad1)*%
X91500000Y-71500000D03*
%TD*%
%TO.P,TP1,1,1*%
%TO.N,Net-(TP1-Pad1)*%
X108500000Y-75500000D03*
%TD*%
D11*
%TO.N,Earth*%
X98000000Y-79000000D03*
%TO.N,Net-(TP7-Pad1)*%
X106005807Y-76982578D03*
%TO.N,Net-(TP5-Pad1)*%
X104000000Y-79500000D03*
%TO.N,Net-(TP6-Pad1)*%
X101000000Y-79500000D03*
%TO.N,Net-(TP1-Pad1)*%
X107000000Y-76500000D03*
%TO.N,Earth*%
X107000000Y-74000000D03*
%TO.N,Net-(TP3-Pad1)*%
X92500000Y-77000000D03*
%TO.N,Net-(TP2-Pad1)*%
X92500000Y-73000000D03*
%TD*%
D12*
%TO.N,Net-(TP3-Pad1)*%
X91500000Y-78000000D02*
X91500000Y-78500000D01*
X92500000Y-77000000D02*
X91500000Y-78000000D01*
%TO.N,Net-(TP2-Pad1)*%
X92500000Y-72500000D02*
X91500000Y-71500000D01*
X92500000Y-73000000D02*
X92500000Y-72500000D01*
%TO.N,Net-(TP7-Pad1)*%
X107523229Y-78500000D02*
X108500000Y-78500000D01*
X106005807Y-76982578D02*
X107523229Y-78500000D01*
%TO.N,Net-(TP5-Pad1)*%
X105000000Y-78500000D02*
X104000000Y-79500000D01*
X105500000Y-78500000D02*
X105000000Y-78500000D01*
%TO.N,Net-(TP6-Pad1)*%
X102000000Y-78500000D02*
X101000000Y-79500000D01*
X102500000Y-78500000D02*
X102000000Y-78500000D01*
%TO.N,Net-(TP1-Pad1)*%
X107000000Y-76500000D02*
X107500000Y-76500000D01*
X107500000Y-76500000D02*
X108500000Y-75500000D01*
%TO.N,Earth*%
X107000000Y-74000000D02*
X108500000Y-72500000D01*
%TD*%
%TA.AperFunction,Conductor*%
%TO.N,Earth*%
G36*
X109434121Y-70528002D02*
G01*
X109480614Y-70581658D01*
X109492000Y-70634000D01*
X109492000Y-71114285D01*
X109471998Y-71182406D01*
X109418342Y-71228899D01*
X109348068Y-71239003D01*
X109300165Y-71221718D01*
X109190948Y-71154790D01*
X109182163Y-71150313D01*
X108972012Y-71063266D01*
X108962627Y-71060217D01*
X108741446Y-71007115D01*
X108731699Y-71005572D01*
X108504930Y-70987725D01*
X108495070Y-70987725D01*
X108268301Y-71005572D01*
X108258554Y-71007115D01*
X108037373Y-71060217D01*
X108027988Y-71063266D01*
X107817837Y-71150313D01*
X107809042Y-71154795D01*
X107641555Y-71257432D01*
X107632093Y-71267890D01*
X107635876Y-71276666D01*
X108770115Y-72410905D01*
X108804141Y-72473217D01*
X108799076Y-72544032D01*
X108770115Y-72589095D01*
X107638920Y-73720290D01*
X107632160Y-73732670D01*
X107637887Y-73740320D01*
X107809042Y-73845205D01*
X107817837Y-73849687D01*
X107899036Y-73883320D01*
X107954317Y-73927868D01*
X107976738Y-73995231D01*
X107959180Y-74064022D01*
X107907218Y-74112401D01*
X107899036Y-74116138D01*
X107817611Y-74149865D01*
X107817607Y-74149867D01*
X107813037Y-74151760D01*
X107808817Y-74154346D01*
X107614798Y-74273241D01*
X107614792Y-74273245D01*
X107610584Y-74275824D01*
X107430031Y-74430031D01*
X107275824Y-74610584D01*
X107273245Y-74614792D01*
X107273241Y-74614798D01*
X107154346Y-74808817D01*
X107151760Y-74813037D01*
X107060895Y-75032406D01*
X107005465Y-75263289D01*
X107005077Y-75268223D01*
X106988294Y-75481462D01*
X106963008Y-75547803D01*
X106905870Y-75589943D01*
X106888879Y-75594823D01*
X106854541Y-75602122D01*
X106717712Y-75631206D01*
X106711682Y-75633891D01*
X106711681Y-75633891D01*
X106549278Y-75706197D01*
X106549276Y-75706198D01*
X106543248Y-75708882D01*
X106388747Y-75821134D01*
X106260960Y-75963056D01*
X106257659Y-75968774D01*
X106231929Y-76013339D01*
X106180546Y-76062332D01*
X106109642Y-76075649D01*
X106107749Y-76075450D01*
X106101294Y-76074078D01*
X105910320Y-76074078D01*
X105903868Y-76075450D01*
X105903863Y-76075450D01*
X105821902Y-76092872D01*
X105723519Y-76113784D01*
X105717489Y-76116469D01*
X105717488Y-76116469D01*
X105555085Y-76188775D01*
X105555083Y-76188776D01*
X105549055Y-76191460D01*
X105394554Y-76303712D01*
X105266767Y-76445634D01*
X105171280Y-76611022D01*
X105112265Y-76792650D01*
X105111575Y-76799211D01*
X105111575Y-76799213D01*
X105094259Y-76963968D01*
X105067246Y-77029625D01*
X105017167Y-77067207D01*
X104817611Y-77149865D01*
X104817607Y-77149867D01*
X104813037Y-77151760D01*
X104808817Y-77154346D01*
X104614798Y-77273241D01*
X104614792Y-77273245D01*
X104610584Y-77275824D01*
X104430031Y-77430031D01*
X104275824Y-77610584D01*
X104273245Y-77614792D01*
X104273241Y-77614798D01*
X104231601Y-77682749D01*
X104151760Y-77813037D01*
X104149867Y-77817607D01*
X104149865Y-77817611D01*
X104116409Y-77898382D01*
X104071861Y-77953663D01*
X104004497Y-77976084D01*
X103935706Y-77958526D01*
X103887328Y-77906564D01*
X103883591Y-77898382D01*
X103850135Y-77817611D01*
X103850133Y-77817607D01*
X103848240Y-77813037D01*
X103768399Y-77682749D01*
X103726759Y-77614798D01*
X103726755Y-77614792D01*
X103724176Y-77610584D01*
X103569969Y-77430031D01*
X103389416Y-77275824D01*
X103385208Y-77273245D01*
X103385202Y-77273241D01*
X103191183Y-77154346D01*
X103186963Y-77151760D01*
X103182393Y-77149867D01*
X103182389Y-77149865D01*
X102972167Y-77062789D01*
X102972165Y-77062788D01*
X102967594Y-77060895D01*
X102887391Y-77041640D01*
X102741524Y-77006620D01*
X102741518Y-77006619D01*
X102736711Y-77005465D01*
X102500000Y-76986835D01*
X102263289Y-77005465D01*
X102258482Y-77006619D01*
X102258476Y-77006620D01*
X102112609Y-77041640D01*
X102032406Y-77060895D01*
X102027835Y-77062788D01*
X102027833Y-77062789D01*
X101817611Y-77149865D01*
X101817607Y-77149867D01*
X101813037Y-77151760D01*
X101808817Y-77154346D01*
X101614798Y-77273241D01*
X101614792Y-77273245D01*
X101610584Y-77275824D01*
X101430031Y-77430031D01*
X101275824Y-77610584D01*
X101273245Y-77614792D01*
X101273241Y-77614798D01*
X101231601Y-77682749D01*
X101151760Y-77813037D01*
X101149867Y-77817607D01*
X101149865Y-77817611D01*
X101093511Y-77953663D01*
X101060895Y-78032406D01*
X101005465Y-78263289D01*
X101005077Y-78268223D01*
X100988294Y-78481462D01*
X100963008Y-78547803D01*
X100905870Y-78589943D01*
X100888879Y-78594823D01*
X100854541Y-78602122D01*
X100717712Y-78631206D01*
X100711682Y-78633891D01*
X100711681Y-78633891D01*
X100549278Y-78706197D01*
X100549276Y-78706198D01*
X100543248Y-78708882D01*
X100388747Y-78821134D01*
X100260960Y-78963056D01*
X100165473Y-79128444D01*
X100106458Y-79310072D01*
X100100297Y-79368698D01*
X100099196Y-79379170D01*
X100072183Y-79444827D01*
X100013962Y-79485457D01*
X99973886Y-79492000D01*
X92886302Y-79492000D01*
X92818181Y-79471998D01*
X92771688Y-79418342D01*
X92761584Y-79348068D01*
X92778870Y-79300165D01*
X92845649Y-79191193D01*
X92845655Y-79191182D01*
X92848240Y-79186963D01*
X92872480Y-79128444D01*
X92937211Y-78972167D01*
X92937212Y-78972165D01*
X92939105Y-78967594D01*
X92958360Y-78887391D01*
X92993380Y-78741524D01*
X92993381Y-78741518D01*
X92994535Y-78736711D01*
X93013165Y-78500000D01*
X92994535Y-78263289D01*
X92939105Y-78032406D01*
X92903874Y-77947350D01*
X92896285Y-77876761D01*
X92928064Y-77813274D01*
X92954813Y-77791981D01*
X92956752Y-77791118D01*
X93111253Y-77678866D01*
X93239040Y-77536944D01*
X93334527Y-77371556D01*
X93393542Y-77189928D01*
X93413504Y-77000000D01*
X93401269Y-76883591D01*
X93394232Y-76816635D01*
X93394232Y-76816633D01*
X93393542Y-76810072D01*
X93334527Y-76628444D01*
X93324469Y-76611022D01*
X93242341Y-76468774D01*
X93239040Y-76463056D01*
X93111253Y-76321134D01*
X92956752Y-76208882D01*
X92950724Y-76206198D01*
X92950722Y-76206197D01*
X92788319Y-76133891D01*
X92788318Y-76133891D01*
X92782288Y-76131206D01*
X92688888Y-76111353D01*
X92601944Y-76092872D01*
X92601939Y-76092872D01*
X92595487Y-76091500D01*
X92404513Y-76091500D01*
X92398061Y-76092872D01*
X92398056Y-76092872D01*
X92311112Y-76111353D01*
X92217712Y-76131206D01*
X92211682Y-76133891D01*
X92211681Y-76133891D01*
X92049278Y-76206197D01*
X92049276Y-76206198D01*
X92043248Y-76208882D01*
X91888747Y-76321134D01*
X91760960Y-76463056D01*
X91757659Y-76468774D01*
X91675532Y-76611022D01*
X91665473Y-76628444D01*
X91606458Y-76810072D01*
X91602447Y-76848240D01*
X91599567Y-76875640D01*
X91572554Y-76941298D01*
X91514333Y-76981928D01*
X91484143Y-76988083D01*
X91263289Y-77005465D01*
X91258482Y-77006619D01*
X91258476Y-77006620D01*
X91112609Y-77041640D01*
X91032406Y-77060895D01*
X91027835Y-77062788D01*
X91027833Y-77062789D01*
X90817611Y-77149865D01*
X90817607Y-77149867D01*
X90813037Y-77151760D01*
X90808818Y-77154345D01*
X90808807Y-77154351D01*
X90699835Y-77221130D01*
X90631302Y-77239669D01*
X90563625Y-77218213D01*
X90518292Y-77163574D01*
X90508000Y-77113698D01*
X90508000Y-72886302D01*
X90528002Y-72818181D01*
X90581658Y-72771688D01*
X90651932Y-72761584D01*
X90699835Y-72778870D01*
X90808807Y-72845649D01*
X90808818Y-72845655D01*
X90813037Y-72848240D01*
X90817607Y-72850133D01*
X90817611Y-72850135D01*
X90904927Y-72886302D01*
X91032406Y-72939105D01*
X91112609Y-72958360D01*
X91258476Y-72993380D01*
X91258482Y-72993381D01*
X91263289Y-72994535D01*
X91482514Y-73011789D01*
X91484143Y-73011917D01*
X91550484Y-73037203D01*
X91592624Y-73094341D01*
X91599566Y-73124358D01*
X91606458Y-73189928D01*
X91665473Y-73371556D01*
X91760960Y-73536944D01*
X91888747Y-73678866D01*
X91945762Y-73720290D01*
X92000066Y-73759744D01*
X92043248Y-73791118D01*
X92049276Y-73793802D01*
X92049278Y-73793803D01*
X92211681Y-73866109D01*
X92217712Y-73868794D01*
X92297319Y-73885715D01*
X92398056Y-73907128D01*
X92398061Y-73907128D01*
X92404513Y-73908500D01*
X92595487Y-73908500D01*
X92601939Y-73907128D01*
X92601944Y-73907128D01*
X92702681Y-73885715D01*
X92782288Y-73868794D01*
X92788319Y-73866109D01*
X92950722Y-73793803D01*
X92950724Y-73793802D01*
X92956752Y-73791118D01*
X92999935Y-73759744D01*
X93054238Y-73720290D01*
X93111253Y-73678866D01*
X93239040Y-73536944D01*
X93334527Y-73371556D01*
X93393542Y-73189928D01*
X93400434Y-73124360D01*
X93412814Y-73006565D01*
X93413504Y-73000000D01*
X93393542Y-72810072D01*
X93334527Y-72628444D01*
X93263216Y-72504930D01*
X106987725Y-72504930D01*
X107005572Y-72731699D01*
X107007115Y-72741446D01*
X107060217Y-72962627D01*
X107063266Y-72972012D01*
X107150313Y-73182163D01*
X107154795Y-73190958D01*
X107257432Y-73358445D01*
X107267890Y-73367907D01*
X107276666Y-73364124D01*
X108127978Y-72512812D01*
X108135592Y-72498868D01*
X108135461Y-72497035D01*
X108131210Y-72490420D01*
X107279710Y-71638920D01*
X107267330Y-71632160D01*
X107259680Y-71637887D01*
X107154795Y-71809042D01*
X107150313Y-71817837D01*
X107063266Y-72027988D01*
X107060217Y-72037373D01*
X107007115Y-72258554D01*
X107005572Y-72268301D01*
X106987725Y-72495070D01*
X106987725Y-72504930D01*
X93263216Y-72504930D01*
X93239040Y-72463056D01*
X93125358Y-72336799D01*
X93097999Y-72287644D01*
X93092380Y-72268301D01*
X93086019Y-72246407D01*
X93075705Y-72228966D01*
X93067008Y-72211213D01*
X93062472Y-72199758D01*
X93059552Y-72192383D01*
X93033563Y-72156612D01*
X93027047Y-72146692D01*
X93008578Y-72115463D01*
X93004542Y-72108638D01*
X92990221Y-72094317D01*
X92977380Y-72079283D01*
X92965472Y-72062893D01*
X92967309Y-72061558D01*
X92940462Y-72008484D01*
X92941846Y-71956177D01*
X92993380Y-71741524D01*
X92993381Y-71741518D01*
X92994535Y-71736711D01*
X93013165Y-71500000D01*
X92994535Y-71263289D01*
X92988705Y-71239003D01*
X92940260Y-71037218D01*
X92939105Y-71032406D01*
X92848240Y-70813037D01*
X92845655Y-70808818D01*
X92845649Y-70808807D01*
X92778870Y-70699835D01*
X92760331Y-70631302D01*
X92781787Y-70563625D01*
X92836426Y-70518292D01*
X92886302Y-70508000D01*
X109366000Y-70508000D01*
X109434121Y-70528002D01*
G37*
%TD.AperFunction*%
%TD*%
M02*
