%TF.GenerationSoftware,KiCad,Pcbnew,(6.0.0)*%
%TF.CreationDate,2022-06-16T21:21:37+02:00*%
%TF.ProjectId,driver_pcb,64726976-6572-45f7-9063-622e6b696361,rev?*%
%TF.SameCoordinates,Original*%
%TF.FileFunction,Copper,L2,Bot*%
%TF.FilePolarity,Positive*%
%FSLAX46Y46*%
G04 Gerber Fmt 4.6, Leading zero omitted, Abs format (unit mm)*
G04 Created by KiCad (PCBNEW (6.0.0)) date 2022-06-16 21:21:37*
%MOMM*%
%LPD*%
G01*
G04 APERTURE LIST*
G04 Aperture macros list*
%AMRoundRect*
0 Rectangle with rounded corners*
0 $1 Rounding radius*
0 $2 $3 $4 $5 $6 $7 $8 $9 X,Y pos of 4 corners*
0 Add a 4 corners polygon primitive as box body*
4,1,4,$2,$3,$4,$5,$6,$7,$8,$9,$2,$3,0*
0 Add four circle primitives for the rounded corners*
1,1,$1+$1,$2,$3*
1,1,$1+$1,$4,$5*
1,1,$1+$1,$6,$7*
1,1,$1+$1,$8,$9*
0 Add four rect primitives between the rounded corners*
20,1,$1+$1,$2,$3,$4,$5,0*
20,1,$1+$1,$4,$5,$6,$7,0*
20,1,$1+$1,$6,$7,$8,$9,0*
20,1,$1+$1,$8,$9,$2,$3,0*%
%AMFreePoly0*
4,1,6,1.000000,0.000000,0.500000,-0.750000,-0.500000,-0.750000,-0.500000,0.750000,0.500000,0.750000,1.000000,0.000000,1.000000,0.000000,$1*%
%AMFreePoly1*
4,1,6,0.500000,-0.750000,-0.650000,-0.750000,-0.150000,0.000000,-0.650000,0.750000,0.500000,0.750000,0.500000,-0.750000,0.500000,-0.750000,$1*%
G04 Aperture macros list end*
%TA.AperFunction,SMDPad,CuDef*%
%ADD10RoundRect,0.237500X-0.250000X-0.237500X0.250000X-0.237500X0.250000X0.237500X-0.250000X0.237500X0*%
%TD*%
%TA.AperFunction,SMDPad,CuDef*%
%ADD11RoundRect,0.237500X0.250000X0.237500X-0.250000X0.237500X-0.250000X-0.237500X0.250000X-0.237500X0*%
%TD*%
%TA.AperFunction,SMDPad,CuDef*%
%ADD12RoundRect,0.237500X-0.300000X-0.237500X0.300000X-0.237500X0.300000X0.237500X-0.300000X0.237500X0*%
%TD*%
%TA.AperFunction,SMDPad,CuDef*%
%ADD13RoundRect,0.150000X0.150000X-0.825000X0.150000X0.825000X-0.150000X0.825000X-0.150000X-0.825000X0*%
%TD*%
%TA.AperFunction,SMDPad,CuDef*%
%ADD14FreePoly0,0.000000*%
%TD*%
%TA.AperFunction,SMDPad,CuDef*%
%ADD15FreePoly1,0.000000*%
%TD*%
%TA.AperFunction,ViaPad*%
%ADD16C,0.800000*%
%TD*%
%TA.AperFunction,Conductor*%
%ADD17C,0.250000*%
%TD*%
G04 APERTURE END LIST*
D10*
%TO.P,R3,1*%
%TO.N,Net-(TP3-Pad1)*%
X94087500Y-75000000D03*
%TO.P,R3,2*%
%TO.N,Net-(U1-Pad8)*%
X95912500Y-75000000D03*
%TD*%
%TO.P,R2,1*%
%TO.N,Net-(TP2-Pad1)*%
X94087500Y-72500000D03*
%TO.P,R2,2*%
%TO.N,Net-(U1-Pad5)*%
X95912500Y-72500000D03*
%TD*%
D11*
%TO.P,R1,1*%
%TO.N,Net-(TP1-Pad1)*%
X106412500Y-75500000D03*
%TO.P,R1,2*%
%TO.N,Net-(U1-Pad6)*%
X104587500Y-75500000D03*
%TD*%
D12*
%TO.P,C1,1*%
%TO.N,Net-(U1-Pad8)*%
X94137500Y-77500000D03*
%TO.P,C1,2*%
%TO.N,Earth*%
X95862500Y-77500000D03*
%TD*%
D13*
%TO.P,U1,1,OUTR*%
%TO.N,Net-(TP5-Pad1)*%
X102405000Y-77475000D03*
%TO.P,U1,2,OUTG*%
%TO.N,Net-(TP6-Pad1)*%
X101135000Y-77475000D03*
%TO.P,U1,3,OUTB*%
%TO.N,Net-(TP7-Pad1)*%
X99865000Y-77475000D03*
%TO.P,U1,4,GND*%
%TO.N,Earth*%
X98595000Y-77475000D03*
%TO.P,U1,5,DO*%
%TO.N,Net-(U1-Pad5)*%
X98595000Y-72525000D03*
%TO.P,U1,6,DIN*%
%TO.N,Net-(U1-Pad6)*%
X99865000Y-72525000D03*
%TO.P,U1,7,SET*%
%TO.N,Net-(JP1-Pad1)*%
X101135000Y-72525000D03*
%TO.P,U1,8,VDD*%
%TO.N,Net-(U1-Pad8)*%
X102405000Y-72525000D03*
%TD*%
D14*
%TO.P,JP1,1,A*%
%TO.N,Net-(JP1-Pad1)*%
X104775000Y-72500000D03*
D15*
%TO.P,JP1,2,B*%
%TO.N,Earth*%
X106225000Y-72500000D03*
%TD*%
D16*
%TO.N,Earth*%
X98000000Y-79000000D03*
%TO.N,Net-(TP7-Pad1)*%
X106005807Y-76982578D03*
%TO.N,Net-(TP5-Pad1)*%
X104000000Y-79500000D03*
%TO.N,Net-(TP6-Pad1)*%
X101000000Y-79500000D03*
%TO.N,Net-(TP1-Pad1)*%
X107000000Y-76500000D03*
%TO.N,Earth*%
X107000000Y-74000000D03*
%TO.N,Net-(TP3-Pad1)*%
X92500000Y-77000000D03*
%TO.N,Net-(TP2-Pad1)*%
X92500000Y-73000000D03*
%TD*%
D17*
%TO.N,Net-(TP3-Pad1)*%
X92500000Y-76587500D02*
X94087500Y-75000000D01*
X92500000Y-77000000D02*
X92500000Y-76587500D01*
%TO.N,Net-(TP2-Pad1)*%
X92500000Y-73000000D02*
X93000000Y-72500000D01*
X93000000Y-72500000D02*
X94087500Y-72500000D01*
%TO.N,Earth*%
X98500000Y-78500000D02*
X98500000Y-77570000D01*
X98500000Y-77570000D02*
X98595000Y-77475000D01*
X98000000Y-79000000D02*
X98500000Y-78500000D01*
%TO.N,Net-(TP7-Pad1)*%
X104787762Y-76982578D02*
X106005807Y-76982578D01*
X103805184Y-76000000D02*
X104787762Y-76982578D01*
X100963928Y-76000000D02*
X103805184Y-76000000D01*
X99865000Y-77098928D02*
X100963928Y-76000000D01*
X99865000Y-77475000D02*
X99865000Y-77098928D01*
%TO.N,Net-(TP5-Pad1)*%
X102405000Y-77905000D02*
X102405000Y-77475000D01*
X104000000Y-79500000D02*
X102405000Y-77905000D01*
%TO.N,Net-(TP6-Pad1)*%
X101000000Y-79500000D02*
X101000000Y-77610000D01*
X101000000Y-77610000D02*
X101135000Y-77475000D01*
%TO.N,Net-(TP1-Pad1)*%
X106412500Y-75912500D02*
X107000000Y-76500000D01*
X106412500Y-75500000D02*
X106412500Y-75912500D01*
%TO.N,Earth*%
X106225000Y-73225000D02*
X107000000Y-74000000D01*
X106225000Y-72500000D02*
X106225000Y-73225000D01*
X98570000Y-77500000D02*
X98595000Y-77475000D01*
X95862500Y-77500000D02*
X98570000Y-77500000D01*
%TO.N,Net-(U1-Pad8)*%
X94137500Y-77500000D02*
X94137500Y-76775000D01*
X94137500Y-76775000D02*
X95912500Y-75000000D01*
X97766072Y-75000000D02*
X95912500Y-75000000D01*
X99518448Y-71225480D02*
X99219520Y-71524408D01*
X99219520Y-71524408D02*
X99219520Y-73546552D01*
X99219520Y-73546552D02*
X97766072Y-75000000D01*
X102405000Y-72148928D02*
X101481552Y-71225480D01*
X101481552Y-71225480D02*
X99518448Y-71225480D01*
X102405000Y-72525000D02*
X102405000Y-72148928D01*
%TO.N,Net-(JP1-Pad1)*%
X102775000Y-74500000D02*
X104775000Y-72500000D01*
X102000000Y-74500000D02*
X102775000Y-74500000D01*
X101135000Y-73635000D02*
X102000000Y-74500000D01*
X101135000Y-72525000D02*
X101135000Y-73635000D01*
%TO.N,Net-(U1-Pad6)*%
X99865000Y-73865000D02*
X101500000Y-75500000D01*
X99865000Y-72525000D02*
X99865000Y-73865000D01*
X101500000Y-75500000D02*
X104587500Y-75500000D01*
%TO.N,Net-(U1-Pad5)*%
X98595000Y-72525000D02*
X95937500Y-72525000D01*
X95937500Y-72525000D02*
X95912500Y-72500000D01*
%TD*%
M02*
